<?xml version="1.0" standalone="no"?>
<!DOCTYPE svg PUBLIC "-//W3C//DTD SVG 1.1//EN" "http://www.w3.org/Graphics/SVG/1.1/DTD/svg11.dtd" >
<svg xmlns="http://www.w3.org/2000/svg">
<metadata>
Created by FontForge 20120731 at Mon Apr 24 09:57:34 2017
 By admin
</metadata>
<defs>
<font id="iconfont" horiz-adv-x="1024" >
  <font-face 
    font-family="iconfont"
    font-weight="500"
    font-stretch="normal"
    units-per-em="1024"
    panose-1="2 0 6 3 0 0 0 0 0 0"
    ascent="896"
    descent="-128"
    x-height="792"
    bbox="0 -220 1250 896.5"
    underline-thickness="0"
    underline-position="0"
    unicode-range="U+0078-F107"
  />
<missing-glyph 
 />
    <glyph glyph-name=".notdef" 
 />
    <glyph glyph-name=".notdef" 
 />
    <glyph glyph-name=".null" horiz-adv-x="0" 
 />
    <glyph glyph-name="nonmarkingreturn" horiz-adv-x="341" 
 />
    <glyph glyph-name="x" unicode="x" horiz-adv-x="1001" 
d="M281 543q-27 -1 -53 -1h-83q-18 0 -36.5 -6t-32.5 -18.5t-23 -32t-9 -45.5v-76h912v41q0 16 -0.5 30t-0.5 18q0 13 -5 29t-17 29.5t-31.5 22.5t-49.5 9h-133v-97h-438v97zM955 310v-52q0 -23 0.5 -52t0.5 -58t-10.5 -47.5t-26 -30t-33 -16t-31.5 -4.5q-14 -1 -29.5 -0.5
t-29.5 0.5h-32l-45 128h-439l-44 -128h-29h-34q-20 0 -45 1q-25 0 -41 9.5t-25.5 23t-13.5 29.5t-4 30v167h911zM163 247q-12 0 -21 -8.5t-9 -21.5t9 -21.5t21 -8.5q13 0 22 8.5t9 21.5t-9 21.5t-22 8.5zM316 123q-8 -26 -14 -48q-5 -19 -10.5 -37t-7.5 -25t-3 -15t1 -14.5
t9.5 -10.5t21.5 -4h37h67h81h80h64h36q23 0 34 12t2 38q-5 13 -9.5 30.5t-9.5 34.5q-5 19 -11 39h-368zM336 498v228q0 11 2.5 23t10 21.5t20.5 15.5t34 6h188q31 0 51.5 -14.5t20.5 -52.5v-227h-327z" />
    <glyph glyph-name="zhankai" unicode="&#xf107;" 
d="M887.5 582q-7.5 8 -19 8t-19.5 -8l-337 -338l-338 338q-8 8 -19 8t-19 -8t-8 -19.5t8 -19.5l353 -353q1 -2 3 -4q8 -8 20 -8q11 0 19 8q2 2 3 4l354 353q7 8 7 19.5t-7.5 19.5z" />
    <glyph glyph-name="ttpodicon" unicode="&#xe623;" 
d="M834 349q7 -33 7 -67q0 -89 -44 -165t-120 -120t-165 -44t-165 44t-120 120t-44 165.5t44 165t120 119.5t165 44q67 0 127 -25.5t106 -70.5l-39 -39q-80 80 -194 80t-194 -80t-80 -193.5t80 -194t194 -80.5t194 80.5t80 193.5v18zM821 505l38 -39l-48 -48l-260 -260v0
l-38 -39l-181 181l38 39l143 -142q202 203 270 270z" />
    <glyph glyph-name="circle" unicode="&#xe7b0;" 
d="M360 384q0 -53 37.5 -90.5t90.5 -37.5t90.5 37.5t37.5 90.5t-37.5 90.5t-90.5 37.5t-90.5 -37.5t-37.5 -90.5z" />
    <glyph glyph-name="close" unicode="&#xe61d;" 
d="M514.5 796q-103.5 0 -197.5 -40t-162 -108t-108 -162t-40 -197.5t40 -197.5t108 -162t162 -108.5t197.5 -40.5t197.5 40.5t162 108.5t108.5 162t40.5 197.5t-40.5 197.5t-108.5 162t-162 108t-197.5 40zM654 256l132 -132q14 -14 14 -34t-14 -34l-37 -37q-14 -14 -34 -14
t-34 14l-131 132q-14 13 -34 13t-34 -13l-132 -132q-14 -14 -33.5 -14t-33.5 14l-38 37q-13 14 -13 34t13 34l132 132q14 13 14 33t-14 34l-132 132q-13 14 -13 33.5t13 33.5l38 38q14 13 33.5 13t33.5 -13l132 -132q14 -14 34 -14t34 14l131 132q14 13 34 13t34 -13l37 -38
q14 -14 14 -33.5t-14 -33.5l-132 -132q-14 -14 -14 -34t14 -33z" />
    <glyph glyph-name="shoukuan1" unicode="&#xe643;" 
d="M959 258q0 21 -15 35.5t-36 14.5h-3h-98v321q0 35 -24.5 59.5t-59.5 24.5h-422q-35 0 -59.5 -24.5t-24.5 -59.5v-321h-107v0q-20 -1 -32.5 -15.5t-12.5 -34.5q0 -19 13 -34v0l1 -1q3 -3 7 -6l346 -303h1q35 -27 79 -27q45 0 79 28h1l355 310q12 14 12 33zM622 325
q14 0 23.5 -9.5t9.5 -23.5t-9.5 -24t-23.5 -10h-68v-42q0 -18 -12.5 -30t-29.5 -12t-29.5 12t-12.5 30v42h-68q-14 0 -23.5 10t-9.5 24t9.5 23.5t23.5 9.5h68v34h-68q-14 0 -23.5 10t-9.5 24t9.5 23.5t23.5 9.5h68v3l-75 75q-10 10 -10 24t10 24t24 10t24 -10l68 -69l69 69
q10 10 24 10t24 -10t10 -24t-10 -24l-74 -74v-4h68q14 0 23.5 -9.5t9.5 -23.5t-9.5 -24t-23.5 -10h-68v-34h68v0z" />
    <glyph glyph-name="shangchuanshipin" unicode="&#xe6ac;" 
d="M747 292q-87 0 -149 -61t-63 -148q-1 -89 60 -152t148 -64q89 -1 151.5 60.5t63.5 149.5q1 89 -61 151.5t-150 63.5zM796 90v-108h-99v108h-37l86 87l87 -87h-37zM494 104q2 95 70 162t163 66q45 0 87 -17v335q0 34 -24.5 58.5t-58.5 24.5h-582q-34 0 -58.5 -24.5
t-24.5 -58.5v-499q0 -34 24.5 -58.5t58.5 -24.5h348q-3 20 -3 36zM315 608l333 -207l-333 -208v415z" />
    <glyph glyph-name="calendar" unicode="&#xe6bf;" 
d="M128 -33q-32 0 -54.5 22.5t-22.5 55.5v700l-25 -26h870q32 0 54.5 -23t22.5 -55v-584q0 -10 7.5 -18t18 -8t18 8t7.5 18v584q0 54 -37.5 92t-90.5 38h-870q-11 0 -18.5 -7.5t-7.5 -18.5v-700q0 -54 37.5 -92t90.5 -38h755q11 0 18.5 7.5t7.5 18t-7.5 18.5t-18.5 8h-755z
M282 641q0 -11 7.5 -18.5t18 -7.5t18 7.5t7.5 18.5v195q0 10 -7.5 18t-18 8t-18 -8t-7.5 -18v-195zM717 654q0 -11 7.5 -18.5t18 -7.5t18 7.5t7.5 18.5v195q0 10 -7.5 18t-18 8t-18 -8t-7.5 -18v-195zM333 485q10 0 17.5 8t7.5 18.5t-7.5 18t-17.5 7.5h-141
q-11 0 -18.5 -7.5t-7.5 -18t7.5 -18.5t18.5 -8h141zM614 485q11 0 18.5 8t7.5 18.5t-7.5 18t-18.5 7.5h-140q-11 0 -18.5 -7.5t-7.5 -18t7.5 -18.5t18.5 -8h140zM870 485q11 0 18.5 8t7.5 18.5t-7.5 18t-18.5 7.5h-140q-11 0 -18.5 -7.5t-7.5 -18t7.5 -18.5t18.5 -8h140z
M333 330q10 0 17.5 7.5t7.5 18t-7.5 18.5t-17.5 8h-141q-11 0 -18.5 -8t-7.5 -18.5t7.5 -18t18.5 -7.5h141zM614 330q11 0 18.5 7.5t7.5 18t-7.5 18.5t-18.5 8h-140q-11 0 -18.5 -8t-7.5 -18.5t7.5 -18t18.5 -7.5h140zM870 330q11 0 18.5 7.5t7.5 18t-7.5 18.5t-18.5 8h-140
q-11 0 -18.5 -8t-7.5 -18.5t7.5 -18t18.5 -7.5h140zM333 174q10 0 17.5 7.5t7.5 18.5t-7.5 18.5t-17.5 7.5h-141q-11 0 -18.5 -7.5t-7.5 -18.5t7.5 -18.5t18.5 -7.5h141zM614 174q11 0 18.5 7.5t7.5 18.5t-7.5 18.5t-18.5 7.5h-140q-11 0 -18.5 -7.5t-7.5 -18.5t7.5 -18.5
t18.5 -7.5h140zM870 174q11 0 18.5 7.5t7.5 18.5t-7.5 18.5t-18.5 7.5h-140q-11 0 -18.5 -7.5t-7.5 -18.5t7.5 -18.5t18.5 -7.5h140z" />
    <glyph glyph-name="ditu" unicode="&#xe696;" 
d="M813 345q50 65 74.5 110.5t24.5 92.5q0 85 -62 144.5t-150 59.5t-150 -59.5t-62 -144.5q0 -43 21.5 -87t63.5 -99l-58 -19l-112 36q22 38 22 70q0 48 -33.5 82t-81.5 34t-82 -34t-34 -82q0 -34 29 -80h-1l-158 -354l239 91l217 -91l204 91l236 -91zM700 647q43 0 73 -29
t30 -70t-30.5 -70t-73 -29t-72.5 29t-30 70t30 70t73 29zM309.5 505q23.5 0 40 -16.5t16.5 -40t-16.5 -40t-40 -16.5t-39.5 16.5t-16 40t16 40t39.5 16.5zM720 159l-200 -86l-213 86l-159 -72l91 235l15 3q41 -56 56 -78q13 20 66 93l139 -45l87 28q70 -89 98 -131
q31 48 88 121l92 -229z" />
    <glyph glyph-name="jinlingyingcaiwangtubiao81" unicode="&#xe776;" 
d="M506 -134q-14 -1 -46 0q-9 1 -26.5 2.5t-62.5 10t-85.5 22t-85 41.5t-70.5 65q-66 91 -23 232q2 6 6.5 16t20 37t34 51.5t49 54.5t64.5 51.5t81 36.5t98 15q11 0 22 -1q18 -1 64.5 -16t74.5 -33q71 -47 112 -108q1 -2 5 -9h5h7q15 0 33 -2q-10 20 -17 31q-38 55 -98 100
q31 30 55 94q18 57 -12 102q-15 22 -43 39.5t-54.5 26.5t-55.5 15t-42.5 7.5t-18.5 1.5q-59 11 -86 -24q-42 -52 9 -188q-50 -5 -96.5 -24t-80.5 -43t-63.5 -55t-48 -57t-33.5 -52.5t-20.5 -38t-6.5 -15.5q-49 -161 28 -267q29 -42 77.5 -73t91 -46t91.5 -24.5t68.5 -11.5
t32.5 -2q18 -1 28 -1q11 0 20 1q36 2 77 10q-20 15 -36 33q-27 -4 -43 -5zM441 702q13 16 51 9q46 -3 105 -21t83 -53q19 -29 7 -68q-10 -27 -25.5 -52t-25.5 -31q-33 21 -81.5 36t-70.5 16q-10 1 -24 1q-11 29 -19 59t-10 60.5t10 43.5zM749.5 287q-94.5 0 -161.5 -67
t-67 -161.5t67 -161.5t161.5 -67t161.5 67t67 161.5t-67 161.5t-161.5 67zM749.5 -132q-78.5 0 -134.5 56t-56 134.5t56 134.5t134.5 56t134.5 -56t56 -134.5t-56 -134.5t-134.5 -56zM878 78h-109v109q0 8 -5.5 13.5t-13.5 5.5t-14 -5.5t-6 -13.5v-109h-108q-8 0 -14 -5.5
t-6 -13.5t6 -14t14 -6h108v-108q0 -8 6 -14t14 -6t13.5 6t5.5 14v108h109q8 0 13.5 6t5.5 14t-5.5 13.5t-13.5 5.5zM514 202q22 35 53 63l-125 -52l-45 198q-2 8 -8.5 12t-14.5 2.5t-12 -8.5t-3 -14l49 -211l-0.5 -0.5l-0.5 -0.5l-5 -10l-82 43q-7 4 -14.5 1.5t-11.5 -9.5
t-1.5 -14.5t9.5 -11.5l82 -43l-26 -50l-82 43q-7 3 -14.5 0.5t-11.5 -9.5t-1.5 -14.5t9.5 -11.5l82 -42l-36 -71q-4 -7 -1.5 -14.5t9.5 -11.5t14.5 -1.5t11.5 9.5l36 71l82 -42q13 -7 23 4q-3 13 -4 29l-0.5 0.5l-0.5 0.5l-82 42l26 51l59 -31q3 22 9 39l-50 26l4 7z" />
    <glyph glyph-name="xuanzhong" unicode="&#xe612;" 
d="M115 313h-52v-108h52v108zM115 25h-52q0 -56 39 -95t95 -39v52q-34 0 -58 24t-24 58zM115 169h-52v-107h52v107zM343 627h-108v-53h108v53zM627 582v45h-108v-53h99q5 5 9 8zM486 627h-107v-53h107v53zM197 574v53q-56 0 -95 -39t-39 -95h52q0 34 24 57.5t58 23.5z
M115 453h-52v-108h52v108zM750 205h52v108h-52v-108zM756 345h46v60q-24 -30 -46 -60zM750 62h52v107h-52v-107zM379 -111h107v53h-107v-53zM235 -111h108v53h-108v-53zM667 -57v-52q55 0 94.5 39t39.5 95h-53q0 -34 -23.5 -58t-57.5 -24zM519 -111h108v53h-108v-53z
M939 726q-87 -53 -170 -116.5t-147.5 -124t-108.5 -107t-80 -89.5l-197 154l-87 -70l340 -345q50 127 181.5 316.5t288.5 333.5z" />
    <glyph glyph-name="attachment" unicode="&#xe6c0;" 
d="M472 777l-379 -399q-72 -75 -71.5 -181.5t74.5 -180.5l3 -4q74 -75 178.5 -75.5t178.5 73.5l500 499q59 59 60 143.5t-56 144.5l-19 -17l-18 -18l4 -4l19 17l18 18q-58 61 -140 60.5t-140 -62.5l-474 -508q-29 -31 -27.5 -73t32.5 -70l11 -11q31 -29 73 -27.5t70 32.5
l369 395q7 8 7 18.5t-8 17.5t-18.5 6.5t-17.5 -7.5l-369 -396q-14 -15 -35 -15.5t-36 13.5l-12 11q-15 14 -15.5 35t13.5 36l474 509q43 45 103 45.5t103 -44.5q11 -11 25 -7t18 16.5t-6 25.5l-4 4q-11 12 -25 7.5t-18 -17t6 -25.5q44 -45 43 -109t-46 -108l-500 -499
q-59 -59 -142.5 -58.5t-142.5 59.5l-3 4q-59 60 -60 145.5t57 146.5l380 399q7 7 7 17.5t-8 18t-18.5 7t-17.5 -7.5v0z" />
    <glyph glyph-name="gongsiguanliline" unicode="&#xe73c;" 
d="M384 172h-128q-27 0 -45.5 -18.5t-18.5 -45.5t18.5 -45.5t45.5 -18.5h128q26 0 45 19t19 45q0 27 -18.5 45.5t-45.5 18.5zM384 364h-128q-27 0 -45.5 -18.5t-18.5 -45.5t18.5 -45.5t45.5 -18.5h128q26 0 45 19t19 45q0 27 -18.5 45.5t-45.5 18.5zM384 556h-128
q-27 0 -45.5 -18.5t-18.5 -45.5t18.5 -45.5t45.5 -18.5h128q26 0 45 19t19 45q0 27 -18.5 45.5t-45.5 18.5zM896 428h-256v256q0 53 -37.5 90.5t-90.5 37.5h-384q-53 0 -90.5 -37.5t-37.5 -90.5v-768q0 -53 37.5 -90.5t90.5 -37.5h768q53 0 90.5 37.5t37.5 90.5v384
q0 53 -37.5 90.5t-90.5 37.5zM512 -20q0 -26 -19 -45t-45 -19h-256q-27 0 -45.5 18.5t-18.5 45.5v640q0 27 18.5 45.5t45.5 18.5h256q27 0 45.5 -18.5t18.5 -45.5v-640zM896 -20q0 -26 -19 -45t-45 -19h-192v384h192q27 0 45.5 -18.5t18.5 -45.5v-256zM768 172
q-27 0 -45.5 -18.5t-18.5 -45.5t18.5 -45.5t45.5 -18.5q26 0 45 19t19 45q0 27 -18.5 45.5t-45.5 18.5z" />
    <glyph glyph-name="shujuchaxun" unicode="&#xe739;" horiz-adv-x="1366" 
d="M115 -180h130v128h-130v-128v0zM277 -180h130v256h-130v-256v0zM1229 -70l-201 194q-18 17 -42 19.5t-44 -9.5l-108 104q92 99 92 230q0 93 -48 172.5t-130 125.5t-179 46t-179.5 -46t-130 -125.5t-47.5 -172.5q0 -117 73 -208.5t187 -122.5v-317h130v305q98 9 179 67
l110 -107q-12 -19 -9.5 -42.5t19.5 -39.5l202 -195q21 -20 50.5 -20t50.5 20l25 24q21 21 21 49.5t-21 48.5v0zM602 213v55h-130v-39q-76 28 -124 93.5t-48 146.5q0 58 28 112q50 -45 50 -47q0 22 51 72t73 50q-2 0 -48 46q55 25 114 25q111 0 189.5 -75.5t78.5 -182.5
q0 -98 -67.5 -171t-166.5 -85v0zM602 213z" />
    <glyph glyph-name="bulb" unicode="&#xe7cb;" 
d="M617 540q41 18 85 24l-230 195q-12 10 -28.5 10t-29.5 -10l-366 -311q-15 -12 -16.5 -30.5t10.5 -33t30.5 -16t33.5 10.5l6 5v-357q0 -12 8 -20t20 -8h457q-38 21 -62 42q-40 37 -64 86q-28 60 -28 143q0 52 17 98t38.5 74t50 52t43 32.5t25.5 13.5zM362 242h-88v87h88
v-87zM242 656q0 14 -9.5 24t-23.5 10h-65q-14 0 -24 -10t-10 -24v-119l132 110v9v0zM801 371q-18 0 -30.5 -13t-12.5 -30.5t13 -29.5q12 -13 30 -13t30 13q13 12 13 29.5t-12.5 30.5t-30.5 13zM741 519q-104 0 -177.5 -73.5t-73.5 -177.5t73.5 -177.5t177.5 -73.5
t177.5 73.5t73.5 177.5t-73.5 177.5t-177.5 73.5zM861 267q-25 -25 -60 -25q-23 0 -43 12l-55 -54l25 -25q6 -7 6 -15.5t-6 -15t-15 -6.5t-15 6l-25 25l-40 -40q-7 -6 -15.5 -6t-15 6.5t-6.5 15t6 15.5l125 125q-12 20 -12 43q0 35 25 60t60.5 25t60.5 -25t25 -60.5
t-25 -60.5z" />
    <glyph glyph-name="map" unicode="&#xe715;" 
d="M452 -98q20 -23 49.5 -23t49.5 23q5 5 15 16q19 21 39 45q64 76 117 150q58 81 97 152q77 137 77 229q0 109 -53 201.5t-143.5 146.5t-198 54t-198.5 -54t-143.5 -146.5t-52.5 -201.5q0 -92 77 -230q39 -70 97 -151q53 -74 117 -150q20 -24 39 -45q10 -11 15 -17v1z
M487 -65q-5 5 -14 16q-19 20 -38 43q-63 75 -116 148q-56 78 -94 146q-70 127 -70 206q0 96 46 177.5t126 128.5t174.5 47t174 -47t126 -128.5t46.5 -177.5q0 -79 -70 -205q-38 -68 -94 -147q-53 -73 -116 -147q-19 -24 -38 -44q-9 -10 -14 -16q-6 -7 -14.5 -7.5t-14.5 6.5
v1zM715 429q14 37 14 77q0 91 -63.5 155t-152.5 64t-152 -64t-63 -155t63 -155.5t152 -64.5q54 0 101 26q9 5 12 14.5t-1.5 18.5t-14 12t-18.5 -2q-37 -20 -79 -20q-69 0 -118 50t-49 121t49 121t118.5 50t118.5 -50t49 -121q0 -31 -11 -60q-3 -9 1 -18.5t13 -13t18 1
t13 13.5v0z" />
    <glyph glyph-name="rizhi" unicode="&#xe60d;" 
d="M702 482v187q0 10 -7.5 17.5t-17.5 7.5h-558q-11 0 -18.5 -7.5t-7.5 -17.5v-609q0 -10 7.5 -17.5t18.5 -7.5h243q40 -70 110.5 -111t153.5 -41q126 0 215 89t89 215q0 105 -64.5 187t-163.5 108zM372.5 162q-10.5 0 -18 7t-7.5 17.5t7.5 18t18 7.5t18 -7.5t7.5 -18
t-7.5 -17.5t-18 -7zM399 390h-179q-10 0 -17.5 -7.5t-7.5 -18t7.5 -18t17.5 -7.5h142q-34 -59 -39 -127h-103q-10 0 -17.5 -7.5t-7.5 -18t7.5 -17.5t17.5 -7h103q3 -40 16 -77h-170q-10 0 -17.5 7.5t-7.5 18.5v507q0 11 7.5 18t17.5 7h457q10 0 17.5 -7t7.5 -18v-128
q-13 1 -25 1q-67 0 -125.5 -27t-101.5 -74zM651 440.5q0 -10.5 -7.5 -18t-18 -7.5t-18 7.5t-7.5 18t7.5 18t18 7.5t18 -7.5t7.5 -18zM625.5 -92q-10.5 0 -18 7.5t-7.5 18t7.5 18t18 7.5t18 -7.5t7.5 -18t-7.5 -18t-18 -7.5zM770 295l-95 -95q2 -6 2 -13q0 -21 -15 -36
t-36 -15t-36 15t-15 36q0 5 1 10l-98 99q-8 7 -8 17.5t7.5 18t18 7.5t18.5 -7l96 -97q8 3 16 3q6 0 13 -2l95 95q7 7 17.5 7t18 -7t7.5 -17.5t-7 -18.5zM879.5 162q-10.5 0 -18 7t-7.5 17.5t7.5 18t18 7.5t18 -7.5t7.5 -18t-7.5 -17.5t-18 -7zM550 567h-330
q-10 0 -17.5 -7.5t-7.5 -18t7.5 -17.5t17.5 -7h330q10 0 17.5 7t7.5 17.5t-7.5 18t-17.5 7.5z" />
    <glyph glyph-name="mianjiceliang" unicode="&#xe76b;" 
d="M608 460q-13 -18 -32 -32v0q-28 -21 -32 -32q-1 -5 -1 -8.5t0.5 -11t0.5 -12.5h-64q0 10 -0.5 26t-1 23t1.5 15q2 4 7.5 8.5t16 11t15.5 11.5q4 1 9.5 3t17 9.5t17.5 16.5t4 24.5t-16 33.5q-8 10 -39 10q-33 0 -42 -13q-22 -34 -22 -51h-64q2 33 18 63.5t39 44.5
q30 18 71 18q52 0 96 -30q18 -13 25 -26.5t7 -37.5q0 -22 -32 -64zM512 333q13 0 22.5 -9.5t9.5 -23.5t-9.5 -23.5t-22.5 -9.5t-22.5 9.5t-9.5 23.5t9.5 23.5t22.5 9.5zM736 716h-480l-192 -384v-96v-64h64h768h64v64v96zM128 236v64l176 352h400l192 -320v-96h-768zM64 140
v-256h896v256h-896zM896 -52h-768v128h32v-63l32 -1v64h64v-63l32 -1v64h64v-63l32 -1v64h64v-63l32 -1v64h64v-63l32 -1v64h64v-63l32 -1v64h64v-63l32 -1v64h63v-63l33 -1v64h32v-128z" />
    <glyph glyph-name="diyiyebackward" unicode="&#xe65d;" 
d="M240 305l3 3l293 292q6 7 16 7t16.5 -6.5t6.5 -16.5t-6 -17l-279 -279l279 -279q6 -7 6 -16.5t-6.5 -16.5t-16.5 -7t-16 7l-293 293q-2 1 -3 2q-7 7 -7 17t7 17zM473 271q-7 7 -7 17t7 17l3 3l293 292q7 7 16.5 7t16.5 -6.5t7 -16.5t-7 -17l-279 -279l279 -279
q7 -7 7 -16.5t-7 -16.5t-16.5 -7t-16.5 7l-293 293q-2 1 -3 2z" />
    <glyph glyph-name="xuanzeniyaoshangchuandetouxiang" unicode="&#xe68d;" 
d="M850 833h-675q-47 0 -80 -32.5t-33 -79.5v-675q0 -46 33 -79t80 -33h675q46 0 79 33t33 79v675q0 47 -33 79.5t-79 32.5v0zM906 46q0 -23 -16.5 -39.5t-39.5 -16.5h-675q-24 0 -40.5 16.5t-16.5 39.5v675q0 23 16.5 39.5t40.5 16.5h675q23 0 39.5 -16.5t16.5 -39.5v-675
v0zM634 265l105 84l67 -45q7 -5 15 -5q15 0 24 13q6 9 4 20.5t-12 18.5l-84 56q-17 11 -33 -2v1l-134 -108l-199 137v0q-2 2 -7 3q-1 0 -1.5 0.5t-1.5 0.5q-2 1 -7 0h-2h-2l-1.5 -0.5l-1.5 -0.5q-5 -2 -7 -3v0l-169 -112q-10 -7 -12 -18.5t4 -20.5q9 -13 24 -13q8 0 15 5
l153 102l435 -299q7 -5 16 -5q14 0 23 12q6 10 4 21.5t-12 17.5l-203 140v0zM582 468q53 0 90 37t37 89.5t-37 89.5t-89.5 37t-89.5 -37t-37 -89.5t37 -89.5t89 -37v0zM582 665q29 0 50 -20.5t21 -50t-21 -50t-50 -20.5t-49.5 20.5t-20.5 50t20.5 50t49.5 20.5v0zM582 665z
" />
    <glyph glyph-name="fangda" unicode="&#xe839;" 
d="M675 425h-122v122q0 17 -12 28.5t-29 11.5t-29 -11.5t-12 -28.5v-122h-122q-17 0 -28.5 -12t-11.5 -29t11.5 -29t28.5 -12h122v-122q0 -17 12 -28.5t29 -11.5t29 11.5t12 28.5v122h122q17 0 28.5 12t11.5 29t-11.5 29t-28.5 12zM939.5 99q-8.5 0 -14.5 -6t-6 -14v-102
h-102q-8 0 -14 -6t-6 -14.5t6 -14.5t14 -6h122q9 0 15 6t6 15v122q0 8 -6 14t-14.5 6zM939.5 343q-8.5 0 -14.5 -6t-6 -14v-122q0 -9 6 -15t14.5 -6t14.5 6t6 15v122q0 8 -6 14t-14.5 6zM939.5 587q-8.5 0 -14.5 -5.5t-6 -14.5v-122q0 -8 6 -14t14.5 -6t14.5 6t6 14v122
q0 9 -6 14.5t-14.5 5.5zM939 832h-122q-8 0 -14 -6t-6 -14.5t6 -14.5t14 -6h102v-102q0 -8 6 -14t14.5 -6t14.5 6t6 14v122q0 9 -6 15t-15 6zM695 -23h-122q-8 0 -14 -6t-6 -14.5t6 -14.5t14 -6h122q9 0 14.5 6t5.5 14.5t-5.5 14.5t-14.5 6zM695 832h-122q-8 0 -14 -6
t-6 -14.5t6 -14.5t14 -6h122q9 0 14.5 6t5.5 14.5t-5.5 14.5t-14.5 6zM329 791h122q8 0 14 6t6 14.5t-6 14.5t-14 6h-122q-9 0 -15 -6t-6 -14.5t6 -14.5t15 -6zM207 -23h-102v102q0 8 -6 14t-14.5 6t-14.5 -6t-6 -14v-122q0 -9 6 -15t15 -6h122q8 0 14 6t6 14.5t-6 14.5
t-14 6zM207 832h-122q-9 0 -15 -6t-6 -15v-122q0 -8 6 -14t14.5 -6t14.5 6t6 14v102h102q8 0 14 6t6 14.5t-6 14.5t-14 6zM84.5 425q8.5 0 14.5 6t6 14v122q0 9 -6 14.5t-14.5 5.5t-14.5 -5.5t-6 -14.5v-122q0 -8 6 -14t14.5 -6zM84.5 180q8.5 0 14.5 6t6 15v122q0 8 -6 14
t-14.5 6t-14.5 -6t-6 -14v-122q0 -9 6 -15t14.5 -6zM451 -23h-122q-9 0 -15 -6t-6 -14.5t6 -14.5t15 -6h122q8 0 14 6t6 14.5t-6 14.5t-14 6z" />
    <glyph glyph-name="liubianxing" unicode="&#xe60f;" 
d="M953 128v512l-443 256l-444 -256v-512l444 -256z" />
    <glyph glyph-name="suoxiao" unicode="&#xe8b1;" 
d="M207 832h-122q-9 0 -15 -6t-6 -15v-122q0 -8 6 -14t14.5 -6t14.5 6t6 14v102h102q8 0 14 6t6 14.5t-6 14.5t-14 6zM329 791h122q8 0 14 6t6 14.5t-6 14.5t-14 6h-122q-9 0 -15 -6t-6 -14.5t6 -14.5t15 -6zM573 791h122q9 0 14.5 6t5.5 14.5t-5.5 14.5t-14.5 6h-122
q-8 0 -14 -6t-6 -14.5t6 -14.5t14 -6zM939 832h-122q-8 0 -14 -6t-6 -14.5t6 -14.5t14 -6h102v-102q0 -8 6 -14t14.5 -6t14.5 6t6 14v122q0 9 -6 15t-15 6zM939.5 587q-8.5 0 -14.5 -5.5t-6 -14.5v-122q0 -8 6 -14t14.5 -6t14.5 6t6 14v122q0 9 -6 14.5t-14.5 5.5z
M939.5 343q-8.5 0 -14.5 -6t-6 -14v-122q0 -9 6 -15t14.5 -6t14.5 6t6 15v122q0 8 -6 14t-14.5 6zM939.5 99q-8.5 0 -14.5 -6t-6 -14v-102h-102q-8 0 -14 -6t-6 -14.5t6 -14.5t14 -6h122q9 0 15 6t6 15v122q0 8 -6 14t-14.5 6zM695 -23h-122q-8 0 -14 -6t-6 -14.5t6 -14.5
t14 -6h122q9 0 14.5 6t5.5 14.5t-5.5 14.5t-14.5 6zM451 -23h-122q-9 0 -15 -6t-6 -14.5t6 -14.5t15 -6h122q8 0 14 6t6 14.5t-6 14.5t-14 6zM207 -23h-102v102q0 8 -6 14t-14.5 6t-14.5 -6t-6 -14v-122q0 -9 6 -15t15 -6h122q8 0 14 6t6 14.5t-6 14.5t-14 6zM84.5 180
q8.5 0 14.5 6t6 15v122q0 8 -6 14t-14.5 6t-14.5 -6t-6 -14v-122q0 -9 6 -15t14.5 -6zM84.5 425q8.5 0 14.5 6t6 14v122q0 9 -6 14.5t-14.5 5.5t-14.5 -5.5t-6 -14.5v-122q0 -8 6 -14t14.5 -6zM675 425h-326q-17 0 -28.5 -12t-11.5 -29t11.5 -29t28.5 -12h326q17 0 28.5 12
t11.5 29t-11.5 29t-28.5 12z" />
    <glyph glyph-name="xinfang" unicode="&#xe60c;" 
d="M881 22h-41v202q0 5 -3.5 9t-9.5 4h-188q-6 0 -10 -4t-4 -9v-202h-27v538q0 5 -3.5 9t-9.5 4h-202v81h377v-161h-14q-5 0 -9 -4t-4 -10v-54q0 -5 4 -9t9 -4h14v-27q11 0 19 -8t8 -19t-8 -19t-19 -8t-19 8t-8 19h-27q0 -22 16 -38t38 -16t38 16t16 38q0 31 -27 47v7h13
q6 0 10 4t4 9v54q0 6 -4 10t-10 4h-13v161h94l27 54l-27 27h-498v53q0 6 -4 10t-9 4h-108q-5 0 -9 -4t-4 -10v-53h-27v13q0 6 -4 10t-10 4h-80q-6 0 -10 -4t-4 -10v-134q0 -6 4 -10t10 -4h80q6 0 10 4t4 10v40h27v-81h-41q-5 0 -9 -4t-4 -9v-538h-67q-6 0 -10 -4t-4 -10v-26
q0 -6 4 -10t10 -4h753q5 0 9 4t4 10v26q0 6 -4 10t-9 4zM545 318q0 -6 -4 -10t-10 -4h-54q-5 0 -9 4t-4 10v54q0 5 4 9t9 4h54q6 0 10 -4t4 -9v-54zM545 452q0 -5 -4 -9t-10 -4h-54q-5 0 -9 4t-4 9v54q0 6 4 9.5t9 3.5h54q6 0 10 -3.5t4 -9.5v-54z" />
    <glyph glyph-name="gongsijianjie" unicode="&#xe614;" horiz-adv-x="1107" 
d="M553.5 -43q-93.5 0 -179 36.5t-147.5 98.5t-98.5 147t-36.5 179q0 119 57 222h40q-63 -103 -63 -222q0 -116 57.5 -214t155.5 -155.5t214 -57.5t214.5 57.5t155.5 155.5t57 214q0 119 -62 222h40q57 -103 57 -222q0 -94 -37 -179t-98.5 -147t-147 -98.5t-179 -36.5z
M673 503q-7 0 -12 5t-5 13v17q0 7 5 12t12 5t12 -5t5 -12v-17q0 -8 -5 -13t-12 -5zM690 401q0 -7 -5 -12t-12 -5t-12 5t-5 12v17q0 7 5 12t12 5t12 -5t5 -12v-17zM877 265h-63h-234h-36h-233h-64q-8 0 -13 5t-5 12.5t4.5 12t12.5 4.5h51v512h273v-137h171v-34h-171v-341h205
v290h35v-290l67 1q8 0 13 -5t5 -12.5t-5 -12.5t-13 -5zM536 674v103h-205v-478h205v375zM417 674h17h17q7 0 12 -5t5 -12t-5 -12t-12 -5h-17h-17q-7 0 -12 5t-5 12t5 12t12 5zM417 555h17h17q7 0 12 -5t5 -12t-5 -12t-12 -5h-17h-17q-7 0 -12 5t-5 12t5 12t12 5zM417 435h17
h17q7 0 12 -5t5 -12t-5 -12t-12 -5h-17h-17q-7 0 -12 5t-5 12t5 12t12 5z" />
    <glyph glyph-name="zaixiantongji" unicode="&#xe629;" 
d="M726 105v134q0 28 29 28h25q11 0 17.5 -6.5t6.5 -17.5v-103v-172q0 -7 -8 -7h-63q-7 0 -7 7v137zM675 54q0 -73 1 -86q0 -7 -7 -7h-66q-5 0 -5 6v87v86q0 11 7 18.5t19 7.5h22q16 0 22.5 -6.5t6.5 -22.5v-83zM933 14v-47q0 -3 -1 -4.5t-5 -1.5h-65q-6 0 -6 6v47v46
q0 14 8 21.5t21 7.5h19q12 0 20.5 -8.5t8.5 -20.5v-46zM705 741q-83 89 -203.5 92t-206.5 -82q-87 -87 -84 -208q3 -141 122 -229l-1 -1q0 -1 -4 -2q-184 -88 -230 -286q-8 -35 -7 -49.5t10.5 -24.5t23.5 -12q15 -2 27.5 5.5t17.5 21.5l3 18q7 54 32 103q44 85 128 134.5
t188 42.5q54 -4 104 -26q6 -3 11 2q17 23 41 42q1 1 16 13q-8 5 -37 18q71 49 102.5 126.5t17 159t-70.5 142.5zM495 345q-83 -1 -143 58.5t-60.5 143.5t58.5 144t142 61q86 1 146 -58.5t60 -145.5q1 -83 -58.5 -142.5t-144.5 -60.5z" />
    <glyph glyph-name="mianji" unicode="&#xe727;" 
d="M512 829q-91 0 -173.5 -35.5t-142.5 -95t-95.5 -142.5t-35.5 -174t35.5 -173.5t95.5 -142.5t142.5 -95.5t173.5 -35.5t174 35.5t143 95.5t95.5 142.5t35.5 173.5t-35.5 174t-95.5 142.5t-143 95t-174 35.5zM195 165q2 3 3 4l48 62l114 -80q15 -8 25 -5t14 10l5 7
q2 3 4.5 7t-0.5 15.5t-18 21.5l-104 74l38 49l113 -81q16 -7 26 -4t14 10l4 7q3 2 5.5 6.5t-0.5 16t-18 21.5l-105 74l38 48l111 -79q16 -7 25.5 -4.5t14.5 10.5l4 7q2 2 4.5 6.5t0 16t-18.5 21.5l-102 72l46 59l202 -143l-292 -372q-2 -2 -4 -5q-123 40 -197 148zM512 -2
q-25 0 -52 3l299 381q4 5 6 10q9 20 -18 38l-249 177q-2 1 -4 3q-3 2 -7 3q-15 6 -27 -7q-4 -4 -8 -10l-76 -97q-2 -2 -4 -5l-211 -269q-33 75 -33 157q0 105 51.5 193.5t140 140t193 51.5t193 -51.5t140 -140t51.5 -193t-51.5 -193t-140 -140t-193.5 -51.5z" />
    <glyph glyph-name="tudi" unicode="&#xe659;" 
d="M830 407q0 2 -0.5 5.5t-0.5 4.5q-1 10 -3 21q-1 7 -2 10q-2 10 -5 21q-1 1 -1.5 4t-1.5 5q-4 13 -9 26q-1 2 -5 11q-6 11 -8 15q-3 6 -7 13q-2 4 -7 11q-6 10 -9 14q-1 1 -2.5 3.5t-2.5 3.5q-20 27 -44 48l-3 3q-8 8 -18 15h-1q-40 31 -87 49q-2 -3 -7 -11.5t-8 -13
t-7.5 -9.5t-8.5 -7q-8 -5 -10 -16t5 -20t22 -7q-10 -10 0 -43q7 -26 21.5 -31t48.5 9q15 6 24.5 2t8.5 -18q-2 -14 -7.5 -26t-10 -20t-4.5 -24.5t9 -40.5q8 -22 34 -49t32 -41q10 -22 62 -46q4 13 7 27q1 2 1.5 6l0.5 4q2 11 3 21q1 4 1 9q2 17 2 31t-2 31v0v0zM407 417
q1 18 24.5 36.5t49.5 30.5q6 2 17 6.5t16 7t11 6.5t8 8.5t0 11.5q-3 19 -14 28.5t-42 9.5q-15 0 -24 -9t-11 -17t-9 -10t-19 11q-13 13 -13.5 20t5.5 8.5t18 3t17 3.5q9 4 16.5 14.5t5 19.5t-17.5 10t-28 -5t-23 1q-11 4 -21 -4t-18 -16.5t-14 -6.5q-9 3 -27 17.5t-32 29.5
q-59 -50 -90 -120q2 -28 12 -52t19 -33l9 -10q0 -2 2 -5t10.5 -13t20.5 -20t35.5 -24.5t53.5 -28.5l6 2q4 6 -10 20q-11 11 -17.5 19t-12 17.5t-3 17.5t12.5 13q22 12 30.5 9.5t13.5 -23.5q6 -22 20 -11q11 8 13 27v0v0zM704 297q-10 -5 -10.5 -16.5t8.5 -19.5q5 -4 10 -7
t11 -4.5t11.5 1t7.5 10.5q5 17 -11.5 30t-26.5 6v0v0zM544 295q-11 9 -22.5 21t-16.5 16t-16.5 7.5t-29.5 3.5q-42 0 -59.5 -16t-8.5 -65q4 -23 12.5 -36t16.5 -16t13 -12.5t4 -27.5q0 -13 -0.5 -20t1.5 -16t2 -12.5t3 -9.5t4 -7.5l4 -6t4 -5.5q32 -51 41 2q11 61 47 107
q12 16 18 28t3.5 30.5t-20.5 34.5v0v0zM512 0v0q159 0 271.5 112.5t112.5 271.5t-112.5 271.5t-271.5 112.5t-271.5 -112.5t-112.5 -271.5t112.5 -271.5t271.5 -112.5v0zM512 -64v0q-122 0 -225 60t-163 163t-60 225t60 225t163 163t225 60t225 -60t163 -163t60 -225
t-60 -225t-163 -163t-225 -60v0z" />
    <glyph glyph-name="caidan" unicode="&#xe780;" 
d="M383 427h-172q-35 0 -60.5 25t-25.5 61v172q0 35 25.5 60.5t60.5 25.5h172q36 0 61 -25.5t25 -60.5v-172q0 -36 -25 -61t-61 -25v0zM426 685q0 18 -12.5 30.5t-30.5 12.5h-172q-18 0 -30.5 -12.5t-12.5 -30.5v-172q0 -18 12.5 -30.5t30.5 -12.5h172q18 0 30.5 12.5
t12.5 30.5v172v0zM383 -3h-172q-35 0 -60.5 25.5t-25.5 60.5v172q0 36 25.5 61t60.5 25h172q36 0 61 -25t25 -61v-172q0 -35 -25 -60.5t-61 -25.5v0zM426 255q0 18 -12.5 30.5t-30.5 12.5h-172q-18 0 -30.5 -12.5t-12.5 -30.5v-172q0 -18 12.5 -30.5t30.5 -12.5h172
q18 0 30.5 12.5t12.5 30.5v172v0zM877 147q-9 0 -15 6.5t-6 15.5v86q0 18 -12.5 30.5t-30.5 12.5h-172q-18 0 -30.5 -12.5t-12.5 -30.5v-172q0 -18 12.5 -30.5t30.5 -12.5h86q9 0 15.5 -6t6.5 -15t-6.5 -15.5t-15.5 -6.5h-86q-36 0 -61 25.5t-25 60.5v172q0 36 25 61t61 25
h172q35 0 60.5 -25t25.5 -61v-86q0 -9 -6.5 -15.5t-15.5 -6.5v0zM813 427h-172q-36 0 -61 25t-25 61v172q0 35 25 60.5t61 25.5h172q35 0 60.5 -25.5t25.5 -60.5v-172q0 -36 -25.5 -61t-60.5 -25v0zM856 685q0 18 -12.5 30.5t-30.5 12.5h-172q-18 0 -30.5 -12.5t-12.5 -30.5
v-172q0 -18 12.5 -30.5t30.5 -12.5h172q18 0 30.5 12.5t12.5 30.5v172v0z" />
    <glyph glyph-name="iconfontkucunchaxun01" unicode="&#xe638;" 
d="M196 436h581l1 -30q1 0 5 0.5t7 0.5q34 0 74 -13v247h-172v129h-610v-784h531q-66 73 -66 167q0 26 5 54h-355v88h391q24 37 61 64h-452zM197 497v72h410v-72h-410zM715 770v-101h149zM983 0l-75 77q27 43 27 93q0 70 -48.5 120t-117 50t-117 -50t-48.5 -120t48.5 -120
t116.5 -50q40 0 78 20l76 -78zM671 170q0 42 29 71.5t70 29.5t69.5 -29.5t28.5 -71.5t-28.5 -72t-69.5 -30t-70 30t-29 72z" />
    <glyph glyph-name="jiancaizhuanhuan" unicode="&#xe60e;" 
d="M846 47v493q0 37 -26 63t-63 26h-534v92q29 8 47.5 31.5t18.5 54.5q0 37 -26 63t-63 26t-63 -26t-26 -63q0 -31 19 -54.5t48 -31.5v-493q0 -37 26 -63t63 -26h534v-92q-29 -8 -47.5 -31.5t-18.5 -54.5q0 -37 26 -63t63 -26t63 26t26 63q0 31 -19 54.5t-48 31.5zM156 807
q0 18 13 31t31.5 13t31.5 -13t13 -31t-13 -31.5t-31.5 -13.5t-31.5 13.5t-13 31.5zM267 184q-18 0 -31 13t-13 31v356h534q18 0 31 -13t13 -31v-356h-534zM823.5 -83q-18.5 0 -31.5 13t-13 31t13 31.5t31.5 13.5t31.5 -13.5t13 -31.5t-13 -31t-31.5 -13z" />
    <glyph glyph-name="renshu" unicode="&#xe64d;" 
d="M1004 26v-20h-41v61v0v21v0q0 96 -38.5 178t-103.5 132l-2 -2v60v0q41 55 41 123q0 79 -53 137.5t-131 66.5v41q95 -8 160 -78.5t65 -166.5q0 -84 -52 -151q71 -56 112.5 -146t42.5 -194v0v-62v0zM705 366q72 -56 113.5 -145.5t41.5 -194.5v0v-82h-41v0v0v62v0v20v0
q0 96 -38 178t-104 132q-70 -64 -165 -64t-165 64q-65 -50 -103.5 -132t-38.5 -178v0v-61v0v-21h-41v62v6v7.5v6.5v0v0v0q0 105 41.5 194.5t113.5 145.5q-52 67 -52 152q0 101 71.5 173t173.5 72t174 -72t72 -173q0 -85 -53 -152zM512 722q-85 0 -145 -60t-60 -144.5
t60 -144.5t145 -60t145 60t60 144.5t-60 144.5t-145 60zM164 579q0 -68 41 -123v0v-60l-2 2q-65 -50 -103.5 -132t-38.5 -178h1v-62v0v-20h-41v61v0q-1 3 -1 6.5t0.5 7.5t0.5 6v0v1v0q0 104 41.5 194t112.5 146q-52 67 -52 151q0 96 65 166.5t160 78.5v-41
q-78 -8 -131 -66.5t-53 -137.5z" />
    <glyph glyph-name="contract" unicode="&#xe61e;" 
d="M658 -43h-483q-46 0 -78.5 32.5t-32.5 78.5v632q0 46 32.5 78.5t78.5 32.5h483q46 0 78.5 -32.5t32.5 -78.5v-202q0 -15 -11 -26t-26 -11t-26 11t-11 26v202q0 15 -11 26t-26 11h-483q-15 0 -26 -11t-11 -26v-632q0 -15 11 -26t26 -11h483q15 0 26 11t11 26v72
q0 15 11 26t26 11t26 -11t11 -26v-72q0 -46 -32.5 -78.5t-78.5 -32.5v0zM881 555l-262 -263l-19 -106l101 31l259 259zM249 161q-5 0 -9 3q-6 3 -8.5 10.5t1.5 14.5q17 29 31.5 52t25.5 36.5t21 24t16 14t12 6.5t9 2t6 -1q20 -3 25 -28q4 -19 6 -53v-11l14 15
q17 18 25.5 26.5t19 14t20.5 3.5q19 -5 26 -31q4 -14 2 -29q4 1 10 4t13.5 0.5t10.5 -9.5t0.5 -14.5t-9.5 -10.5q-17 -8 -26 -11t-17.5 -3.5t-14.5 4.5q-11 10 -6 32q4 17 1 27v0q-7 -6 -28 -28l-15 -17q-24 -26 -42 -19q-13 4 -16.5 16t-4.5 38q-2 29 -4 43
q-31 -27 -78 -111q-6 -10 -17 -10zM212 588h409v-37h-409v37zM212 514h409v-37h-409v37zM212 440h334v-37h-334v37z" />
    <glyph glyph-name="wxbzhanghu" unicode="&#xe61f;" 
d="M918 749h-790q-24 0 -41 -17t-17 -41v-568q0 -24 17 -41t41 -17h790q24 0 41 17t17 41v568q0 24 -17 41t-41 17zM933 123q0 -6 -4.5 -10.5t-10.5 -4.5h-790q-6 0 -10.5 4.5t-4.5 10.5v568q0 6 4.5 10.5t10.5 4.5h790q6 0 10.5 -4.5t4.5 -10.5v-568zM433 385q52 40 52 104
q0 55 -38.5 93.5t-93 38.5t-93 -38.5t-38.5 -93.5q0 -64 52 -104q-54 -23 -87 -72.5t-33 -110.5q0 -8 6.5 -14.5t15.5 -6.5t15 6.5t6 14.5q0 64 44.5 109t107.5 47h2.5h2h2h2.5q63 -2 107.5 -47t44.5 -109q0 -8 6 -14.5t15 -6.5t15.5 6.5t6.5 14.5q0 61 -33.5 110.5
t-86.5 72.5zM265 489q0 37 26 63t62.5 26t62.5 -26t26 -63q0 -35 -24.5 -60.5t-59.5 -27.5q-1 0 -2.5 0.5t-2 0.5t-2 -0.5t-2.5 -0.5q-35 2 -59.5 27.5t-24.5 60.5zM847 582h-288q-9 0 -15.5 -6.5t-6.5 -15.5t6.5 -15t15.5 -6h288q9 0 15 6t6 15t-6 15.5t-15 6.5zM847 449
h-288q-9 0 -15.5 -6.5t-6.5 -15t6.5 -15t15.5 -6.5h288q9 0 15 6.5t6 15t-6 15t-15 6.5zM847 316h-245q-9 0 -15.5 -6t-6.5 -15t6.5 -15.5t15.5 -6.5h245q9 0 15 6.5t6 15.5t-6 15t-15 6v0z" />
    <glyph glyph-name="submit" unicode="&#xe63e;" 
d="M473 -13h-149h-74h-6h-7q-2 0 -4 1q2 -1 4 -1v0h-3q-5 1 -10 3q-3 1 -8 2h1q-1 1 -4 2t-7 4l-6 4l2 -2q-5 5 -11 12l-3 3l1 -1q-3 3 -6 8q-1 3 -3 7q-1 1 -2 3l1 -1q0 -1 1 -3l-2 4q-2 8 -4 18q1 -6 0 0v3v5v0v10v49v177v203v135v12v2v5v5v-1q2 8 5 17q0 1 1 3v0
q-1 -1 -2 -3q1 1 2 3q2 3 4 8q2 2 5 6h-1l3.5 3.5t5.5 6.5q1 0 4 2h-1q6 5 15 9q1 1 3 2l-1 -1q4 2 8 3t9 2h2v0h-1h-1h-1h5h7h107h198h173h41h3h2h9h-1q2 0 5.5 -1t7.5 -2q1 -1 4 -2l-1 1q8 -4 16 -9q1 -1 3 -2h-1q3 -2 6 -5l6 -6q0 -1 2 -3l-1 1l-2 2q2 -1 4 -4
q4 -6 7 -14q-2 4 0 0q1 -3 1 -4q2 -4 3 -9q0 -1 1 -4l-1 1q1 -4 1 -9v-2v-14v-70v-199v-73q0 -10 7.5 -17.5t17.5 -7.5t17.5 7.5t7.5 17.5v121v192v43q0 34 -17 63q-21 36 -63 52q-18 7 -55 7h-56h-187h-190h-59q-32 0 -48 -4q-38 -10 -63.5 -43.5t-25.5 -73.5v-25v-150
v-205v-166v-39q0 -57 39 -93q32 -29 77 -31h17h82h134q11 0 18 7t7 17.5t-7 18t-18 7.5v0v0v0zM845 176q-56 -59 -97 -102q-31 -32 -90 -95h36q-11 11 -35.5 32.5t-37.5 33.5q-8 7 -18 7t-17 -7t-7.5 -18t7.5 -18q55 -50 72 -65q8 -7 18 -7.5t18 7.5l97 102q30 32 90 94
q7 8 7 18t-7 18q-8 7 -18.5 7t-17.5 -7v0zM344 526h126h179h19q10 0 17.5 7t7.5 17.5t-7.5 18t-17.5 7.5h-127h-178h-19q-11 0 -18 -7.5t-7 -18t7 -17.5t18 -7v0v0zM344 329h126h179h19q10 0 17.5 7.5t7.5 18t-7.5 17.5t-17.5 7h-127h-178h-19q-11 0 -18 -7t-7 -17.5t7 -18
t18 -7.5v0v0zM344 133h129q11 0 18 7.5t7 17.5t-7 17.5t-18 7.5h-129q-11 0 -18 -7.5t-7 -17.5t7 -17.5t18 -7.5v0z" />
    <glyph glyph-name="sanjiaoxingshangla" unicode="&#xe677;" 
d="M730 211l-218 378l-218 -378h436z" />
    <glyph glyph-name="guest" unicode="&#xe640;" 
d="M319 596v0q0 -69 48.5 -117.5t117 -48.5t117 48.5t48.5 117.5v0v0q0 68 -48.5 116.5t-117 48.5t-117 -48.5t-48.5 -116.5v0zM550 146q0 61 41.5 109.5t102.5 64.5q14 3 16.5 17.5t-8.5 22.5q-26 19 -57 33q-12 5 -25 -3q-62 -43 -136 -43t-135 43q-13 8 -26 3
q-77 -35 -122 -101.5t-45 -155.5q0 -46 63.5 -78t155 -42.5t187.5 -2.5q13 1 18.5 13t-1.5 23q-29 44 -29 97zM730 284q-57 0 -97 -40.5t-40 -97.5t40 -97.5t97 -40.5t97.5 40.5t40.5 97.5t-40.5 97.5t-97.5 40.5zM799 129q5 -9 11 -11l-16 -28q-12 7 -25 3.5t-19 -14.5
q-4 -7 -4 -16h-33q0 13 -9 22.5t-22 9.5q-10 0 -15 -5l-17 28q11 7 14.5 19.5t-3.5 24.5q-4 7 -11 12l17 28q11 -7 24 -3.5t19 14.5q5 6 5 16h32q0 -14 9 -23.5t22 -9.5q10 0 16 5l16 -28q-11 -8 -14 -20t3 -24zM725 177q-17 -2 -24 -17q-9 -17 1 -33t28 -16q14 0 23.5 10
t9.5 23q0 15 -11.5 25.5t-26.5 7.5z" />
    <glyph glyph-name="examine" unicode="&#xe8ad;" 
d="M694 545.5q0 8.5 -6 14.5t-14 6h-458q-8 0 -14 -6t-6 -14.5t6 -14.5t14 -6h458q8 0 14 6t6 14.5zM216 420q-8 0 -14 -6t-6 -14t6 -14t14 -6h294q8 0 14 6t6 14t-6 14t-14 6h-294zM446 275h-230q-8 0 -14 -6t-6 -14.5t6 -14.5t14 -6h230q9 0 15 6t6 14.5t-6 14.5t-15 6z
M895 67h-51l-100 142q31 12 51 39.5t20 61.5q0 45 -31 76.5t-75 31.5t-75 -31.5t-31 -76.5q0 -34 19.5 -61.5t51.5 -39.5l-101 -142h-51q-19 0 -33 -13.5t-14 -33.5v-76q0 -20 14 -34t33 -14h373q20 0 33.5 14t13.5 34v76q0 20 -13.5 33.5t-33.5 13.5zM643 310.5
q0 27.5 19 47t46.5 19.5t47 -19.5t19.5 -47t-19.5 -47t-46.5 -19.5h-1q-27 0 -46 19.5t-19 47zM703 180l11 1l81 -114h-172zM902 -56q0 -7 -7 -7h-373q-7 0 -7 7v76q0 7 7 7h373q7 0 7 -7v-76zM122 29v795q0 7 7 7h639q6 0 6 -7v-382q23 -11 41 -30v412q0 20 -14 34t-33 14
h-639q-20 0 -33.5 -14t-13.5 -34v-795q0 -20 13.5 -33.5t33.5 -13.5h306v38v1v1h-306q-7 0 -7 7v0z" />
    <glyph glyph-name="renshu1" unicode="&#xe62a;" 
d="M728 -25v-1q1 -11 8 -18.5t17 -7.5t17 7.5t7 18.5v9h1v18q0 117 -61 213t-164 140l-15 6l14 10q49 35 76.5 90t27.5 118q0 103 -68.5 176t-165.5 73t-166 -73t-69 -176q0 -63 28 -118t77 -90l13 -10l-15 -6q-103 -44 -164 -140t-61 -213q0 -8 1 -18v0v-9q0 -11 7.5 -19
t17.5 -8t17 8t7 19v1v1q-1 15 -1 25q0 135 90 231q90 95 217.5 95t218.5 -95q89 -96 89 -231q0 -10 -1 -25v-1v0v0zM237 578q0 80 54 137.5t130.5 57.5t130.5 -57.5t54 -138t-54 -138t-130.5 -57.5t-130.5 57.5t-54 138.5v0v0zM692 338q96 -11 157 -88q62 -77 62 -183
q0 -12 7 -20t18 -8q10 0 17 7.5t8 18.5v1v1q0 97 -51 177t-136 116l-16 6l14 10q41 29 64 74.5t23 97.5q0 73 -41.5 129t-107.5 73v0h-3h-1h-1q-10 0 -17.5 -8t-7.5 -20q0 -10 6 -17.5t15 -9.5h2l1 -1q2 0 5 -1l1 -1v0q43 -15 69.5 -54t26.5 -88q0 -53 -32 -94.5t-82 -52.5
h-1h-2q-12 -1 -20 -10.5t-8 -21.5q0 -13 8 -22.5t20 -10.5h2h1v0v0zM692 338z" />
    <glyph glyph-name="yonghuguanli" unicode="&#xe62e;" 
d="M1024 84v104q-69 13 -70 18q-2 9 -4 15q4 6 15.5 18t21.5 21l10 8l-78 103q-50 -41 -62 -47q-8 3 -18 6q-3 1 -9.5 18t-11.5 34l-5 16l-104 1q-11 -64 -28 -68q-8 -3 -17 -7q-5 3 -21 15t-29 23l-13 10l-77 -104q39 -40 41 -53q-2 -7 -4 -12l-64 -15v-104q55 -12 66 -21
q3 -9 7 -17q-13 -16 -47 -43v0l80 -104q63 41 73 43q9 -4 16 -6q4 -1 8 -17t6 -31l2 -16h104q3 59 11 62q12 3 22 8q4 -2 16.5 -13t23 -21l10.5 -10l103 104q-39 27 -49 41l8 18q1 4 18 10t33 9l16 4v0v0v0zM759 5q-54 0 -92.5 38.5t-38.5 93t38.5 92.5t93 38t92.5 -38
t38 -92.5t-38 -93t-93 -38.5v0v0v0zM426 404q58 0 114 34t91 90.5t35 116.5q0 61 -33.5 119.5t-88 95t-113 36.5t-114 -37t-90 -96.5t-34.5 -120.5q0 -92 71.5 -165t161.5 -73v0v0v0zM478 352h-239q-33 0 -66 -11t-66 -40t-47 -73q-29 -93 -59 -186q-11 -33 116.5 -52
t304.5 -18q20 0 29.5 6.5t9.5 20t-3.5 28t-8 37.5t-4.5 42q0 47 14 91.5t30 70.5t26 46.5t2.5 29t-39.5 8.5v0v0v0zM478 352z" />
    <glyph glyph-name="xiangxipage" unicode="&#xe662;" 
d="M921 649h-335q-15 0 -26 11t-11 26.5t11 26.5t26 11h335q15 0 26 -11t11 -26.5t-11 -26.5t-26 -11v0v0zM921 463h-335q-15 0 -26 11t-11 26.5t11 26.5t26 11h335q15 0 26 -11t11 -26.5t-11 -26.5t-26 -11v0v0zM921 230h-335q-15 0 -26 11t-11 26.5t11 26.5t26 11h335
q15 0 26 -11t11 -26.5t-11 -26.5t-26 -11v0v0zM921 44h-335q-15 0 -26 11t-11 26.5t11 26.5t26 11h335q15 0 26 -11t11 -26.5t-11 -26.5t-26 -11v0v0zM103 761q-15 0 -26 -11t-11 -26v-223q0 -16 11 -27t26 -11h223q15 0 26 11t11 27v223q0 15 -11 26t-26 11h-223zM103 305
q-15 0 -26 -11t-11 -27v-223q0 -15 11 -26t26 -11h223q15 0 26 11t11 26v223q0 16 -11 27t-26 11h-223zM103 240z" />
    <glyph glyph-name="jiafangshouyi" unicode="&#xe6ca;" 
d="M521 296h-25q-9 -28 -17 -65h58q-7 33 -16 65zM521 308q3 5 6 10.5t4 9.5l1 3q1 5 -4 6q-11 2 -20 2q-4 0 -8.5 -0.5t-8 -1l-3.5 -0.5q-5 -1 -4 -6q3 -12 11 -23h26zM479 231q-3 -16 -4 -27q0 -1 1 -4q10 -12 29 -23q2 -2 4 -1l1 0.5l1 0.5l1 1q8 5 15.5 11t9.5 9l3 3
q2 1 2 3q-2 11 -5 27h-58zM512 831q-91 0 -173.5 -35t-142.5 -95t-95 -142.5t-35 -173.5t35 -174t95 -142.5t142.5 -95t173.5 -35.5t174 35.5t142.5 95t95 142.5t35.5 174t-35.5 173.5t-95 142.5t-142.5 95t-174 35zM697 231h-18v0h-133q3 -16 4 -27q0 -6 -3 -10l-3 -3.5
t-10.5 -10t-17.5 -12.5h-2q-1 -2 -3 -2q-1 -1 -3 -1q-3 0 -6 3q-15 9 -32 26q-4 5 -3 10q1 11 4 27h-22h22q8 41 18 70q-5 7 -8.5 14t-4.5 11l-1 4q-3 13 9 16q1 0 4.5 0.5t9.5 1t10 0.5l25 -2q12 -3 10 -16q-4 -15 -14 -29q9 -33 17 -70h133q0 29 -6 36q-6 11 -18 20
q-17 11 -43 18q-47 12 -58 52q-3 13 -2 27q2 15 10 22q10 11 17 33l2 8l7 4q4 2 7.5 7t3.5 10q0 2 -2 3l-10 8l3 13q7 26 8 43q2 27 -6 38q-6 8 -21 8l-19 1v12q-5 3 -13 5q-16 4 -33 4q-43 0 -61 -24q-10 -12 -12 -31q-3 -24 5 -56l4 -18l-15 -5q0 -3 1 -7q2 -5 5 -6
q11 -4 15 -20q4 -20 18 -34q17 -17 6 -51q-13 -40 -50 -47q-13 -2 -27 -7q-15 -6 -27 -14q-23 -18 -22 -52h54h-54v0h-20q-3 22 6 39.5t25 28t31.5 16.5t30.5 9q16 2 26.5 16.5t10.5 27.5t-4 20q-11 12 -16.5 24t-7 18.5t-2.5 7.5q-15 5 -18 25t11 24q-8 40 -5 66.5t18.5 42
t33.5 21.5t40 6q25 0 45.5 -7.5t20.5 -14.5q66 -3 37 -114q13 -12 8 -28.5t-19 -24.5q-8 -28 -23 -42q-2 -2 -3 -8t0 -14.5t5 -17.5t14 -16.5t26 -11.5q28 -8 46.5 -20t25 -24t9 -23.5t1.5 -18.5z" />
    <glyph glyph-name="bianhao" unicode="&#xe64f;" 
d="M455 300h89l27 167h-90zM512 833q-91 0 -174 -35.5t-143 -95.5t-95.5 -143t-35.5 -174t35.5 -174t95.5 -143t143 -95t174 -35t174 35t143 95t95.5 143t35.5 174t-35.5 174t-95.5 143t-143 95.5t-174 35.5zM696 467h-61l-26 -167h69l-9 -57h-69l-18 -110h-65l18 110h-89
l-18 -110h-65l18 110h-61l9 57h61l26 167h-70l9 57h70l18 110h64l-17 -110h90l17 110h65l-18 -110h61z" />
    <glyph glyph-name="company-info" unicode="&#xe675;" 
d="M869 462q4 -2 13 -6v284l-128 108l-426 -154v-39l387 126v-294q13 1 27 1q66 0 127 -26zM190 198l202 39v100l-202 -52v-87zM190 -101h202v104l-202 -14v-90zM190 49l202 19v99l-202 -33v-85zM190 350l202 54v103l-202 -66v-91zM451 11v-111h94q-18 13 -35 30
q-36 36 -59 81zM614 462l3 1v144l-114 67l-431 -150v-628h57v597l322 103v-285q23 44 59 81q46 46 104 70zM1000 180q-1 8 -8.5 16t-15.5 10l-9 1q-32 10 -49 39q-17 30 -9 62v0l3 8q2 9 -0.5 19t-9.5 15q-8 7 -31 20l-32 16q-8 3 -18 1t-16 -9l-6 -6q-25 -23 -58 -23
q-35 0 -59 23l-6 6q-6 6 -16 8.5t-18 -0.5q-10 -3 -32 -16l-31 -20q-7 -6 -9.5 -15.5t-0.5 -18.5l3 -8q7 -33 -9 -62q-17 -30 -50 -39l-8 -2q-8 -2 -15.5 -9.5t-8.5 -16.5q-2 -10 -2 -36l2 -36q1 -9 8.5 -16.5t15.5 -9.5l8 -2q33 -9 50 -39q17 -29 9 -62v0l-3 -8
q-2 -8 1 -18t9 -16q8 -7 31 -19l32 -17q8 -3 18 -0.5t16 8.5l6 7q25 23 59 23q33 0 58 -23v0l6 -7q6 -6 16 -8.5t18 0.5q10 4 32 17l31 19q7 6 9.5 16t0.5 18l-3 8q-7 34 10 62q16 30 49 39v0l8 2q8 2 15.5 9.5t9.5 16.5q1 10 1 36l-2 37v0zM740 39q-43 0 -73.5 30.5
t-30.5 74t30.5 74t74 30.5t74 -30.5t30.5 -74t-30.5 -74t-74.5 -30.5v0z" />
    <glyph glyph-name="qiyejibenxinxichaxun" unicode="&#xe622;" 
d="M817 484l12 -6v270l-122 102l-404 -146v-37l367 120v-280q13 1 26 1q63 0 121 -24v0zM817 484zM171 232l193 37v95l-193 -49v-83zM171 232zM171 -52h193v99l-193 -14v-85zM171 -52zM171 90l193 18v95l-193 -32v-81zM171 90zM171 377l193 51v98l-193 -63v-86zM171 377z
M419 55v-106h90q-17 12 -33 28q-34 34 -57 78v0zM419 55zM575 484l3 1v136l-109 64l-410 -143v-596h54v567l306 98v-271q22 42 57 77q43 44 99 67v0zM575 484zM803 225zM651 318q-40 0 -68 -28.5t-28 -68.5t28 -68t68 -28t68 28t28 68t-28 68.5t-68 28.5zM696 445
q-103 0 -175.5 -72.5t-72.5 -175.5t72.5 -175.5t175.5 -72.5t175.5 72.5t72.5 175.5t-72.5 175.5t-175.5 72.5zM823 49.5q-5 -4.5 -11.5 -4.5t-11.5 4l-70 71q-35 -27 -79 -27q-53 0 -90.5 37.5t-37.5 90.5t37.5 91t90.5 38t90.5 -38t37.5 -91q0 -44 -26 -79l70 -70
q5 -5 5 -11.5t-5 -11z" />
    <glyph glyph-name="templatedefault" unicode="&#xe74a;" 
d="M468 -78h-308q-37 0 -63 27t-26 66v856l-25 -25h736q36 0 62.5 -27t26.5 -66v-347q0 -10 7 -17.5t17.5 -7.5t17.5 7.5t7 17.5v347q0 59 -40.5 101t-97.5 42h-736h-25v-25v-856q0 -59 40.5 -101t98.5 -42h308q11 0 18 7.5t7 17.5t-7 17.5t-18 7.5v0zM197 521h571
q11 0 18 7.5t7 18t-7 17.5t-18 7h-571q-10 0 -17.5 -7t-7.5 -17.5t7.5 -18t17.5 -7.5v0zM200 671h571q10 0 17.5 7.5t7.5 18t-7.5 17.5t-17.5 7h-571q-10 0 -17.5 -7t-7.5 -17.5t7.5 -18t17.5 -7.5v0zM771 -128q103 0 176 73t73 176.5t-73 177t-176.5 73.5t-176.5 -73.5
t-73 -177t73 -176.5t177 -73v0zM771 -78q-83 0 -141.5 58.5t-58.5 141.5t58.5 141.5t141 58.5t141 -58.5t58.5 -141.5t-58.5 -141.5t-140.5 -58.5v0zM628 104l71 -71q14 -14 35 -14t35 14l145 145q7 7 7 17.5t-7 18t-17.5 7.5t-17.5 -8l-145 -144v0l-71 70q-7 8 -17.5 8
t-17.5 -7.5t-7 -18t7 -17.5v0z" />
    <glyph glyph-name="qiyeguanxitupu" unicode="&#xe60a;" 
d="M893 -114q-44 -23 -91.5 -9t-71.5 58q-18 34 -13.5 70.5t28.5 64.5l-46 87q-36 -12 -74 -12q-85 0 -149.5 54t-78.5 135h-96q-13 -34 -43.5 -56t-69.5 -22q-50 0 -85 35t-35 84.5t35 84.5t85 35q38 0 68.5 -21.5t43.5 -55.5l98 -1q16 79 79.5 131.5t147.5 52.5
q27 0 53 -6l39 93q-27 25 -35.5 61.5t5.5 72.5q19 46 65 65t92 0t65 -64.5t0 -91.5q-14 -35 -45.5 -55t-68.5 -19l-40 -96q46 -31 73.5 -80.5t27.5 -107.5q0 -52 -22.5 -98t-61.5 -78l46 -87q37 6 71 -11t53 -50q23 -44 9 -91.5t-58 -71.5v0zM893 -114z" />
    <glyph glyph-name="shangchuan" unicode="&#xe650;" 
d="M922 111v-27q0 -46 -32 -78t-78 -32h-600q-46 0 -78 32t-32 78v136q0 12 8 20t19.5 8t19.5 -8t8 -20v-136q0 -23 16 -39t39 -16h600q23 0 39 16t16 39v136q0 12 8 20t19.5 8t19.5 -8t8 -20v-109v0v0zM821 419l-282 282v-481q0 -11 -8 -19t-19 -8t-19 8t-8 19v479
l-282 -282q-8 -8 -19.5 -8t-19.5 8t-8 19.5t8 19.5l326 326l1 1.5l1 1.5l1 1h0.5t0.5 1q7 6 16 6q2 1 4 0q9 0 16 -6q0 -1 0.5 -1h0.5l329 -328q8 -8 8 -19.5t-8 -19.5t-19.5 -8t-19.5 8v0z" />
    <glyph glyph-name="shangyiye-copy-copy" unicode="&#xe601;" 
d="M718 -5q10 9 10 23t-10 23l-342 340l340 343q10 10 10 23.5t-10 23.5t-23.5 10t-23.5 -10l-362 -365q0 -1 -0.5 -1.5l-0.5 -0.5v-1q-10 -9 -10 -23t10 -23l365 -363q10 -9 23.5 -9t23.5 10v0v0zM718 -5z" />
    <glyph glyph-name="zijinmingxi" unicode="&#xe652;" 
d="M1016 756q0 56 -40 96t-95 40h-186h-230h-326q-56 0 -95.5 -40t-39.5 -96v-725q0 -56 39.5 -96.5t95.5 -40.5h301q9 0 14.5 6t5.5 14.5t-5.5 14.5t-14.5 6h-301q-39 0 -66.5 28.5t-27.5 67.5v725q0 39 27.5 67.5t66.5 28.5h326h230h186q38 0 66 -28.5t28 -67.5
q-1 -282 0 -297q1 -20 20 -20q9 0 15 6t6 14v297v0zM254 633h458q9 0 15 6t6 14.5t-6 14.5t-15 6h-458q-9 0 -15 -6t-6 -14.5t6 -14.5t15 -6v0v0zM254 469h188q9 0 15 6t6 14.5t-6 14t-15 5.5h-188q-9 0 -15 -5.5t-6 -14t6 -14.5t15 -6v0v0zM254 291h67q9 0 15 6t6 14.5
t-6 14.5t-15 6h-67q-9 0 -15 -6t-6 -14.5t6 -14.5t15 -6v0v0zM254 113h67q9 0 15 6t6 14.5t-6 14.5t-15 6h-67q-9 0 -15 -6t-6 -14.5t6 -14.5t15 -6v0v0zM452 183q0 108 76.5 185t185 77t185.5 -77t77 -185.5t-77 -185.5t-185.5 -77t-185 77t-76.5 186v0v0zM408 183
q0 -127 89.5 -216.5t216.5 -89.5t216.5 89.5t89.5 216t-89.5 216.5t-216.5 90t-216.5 -90t-89.5 -216v0v0zM736 182h80q8 0 14 6t6 14.5t-6 14.5t-14 6h-74l89 88q5 6 5 14.5t-5.5 14.5t-14 6t-14.5 -6l-103 -103h29l-102 102q-6 6 -14.5 6t-14.5 -6t-6 -14.5t6 -14.5
l87 -87h-71q-8 0 -14 -6t-6 -14.5t6 -14.5t14 -6h82v-40h-83q-9 0 -15 -6t-6 -14.5t6 -14.5t15 -6h83v-81q0 -9 6 -15t14.5 -6t14.5 6t6 15v81h78q9 0 15 6t6 14.5t-6 14.5t-15 6h-78v40v0z" />
    <glyph glyph-name="output" unicode="&#xe6fc;" 
d="M835 533v-0.5v-0.5q0 -5 -2 -8q-1 -4 -5 -8v0l-179 -179q-7 -6 -18 -6q-8 0 -17 8q-7 7 -7 18.5t7 18.5l138 143h-411q-8 0 -25 -9t-38 -26.5t-36 -51.5t-15 -76v-122v-8t-6 -13t-18 -8q-11 0 -17 7.5t-6 14.5l-1 7v122q0 48 16.5 87.5t41 64t48.5 39t46 18.5l2 1
q4 1 5 1h414l-138 133q-15 15 0 30q7 7 17.5 7t17.5 -7l179 -180l0.5 -0.5l0.5 -0.5q3 -4 4 -7q2 -3 2 -8v-0.5v-0.5v0zM797 282v0v-143h-570q-23 0 -32 -12t0 -23.5t32 -11.5h570q20 0 34 13.5t14 33.5v143q0 22 -12 31.5t-24 0t-12 -31.5v0zM797 282z" />
    <glyph glyph-name="xinzeng" unicode="&#xe627;" 
d="M888 866h-545q-44 0 -75 -31t-31 -74v-546q0 -44 31 -75t75 -31h545q44 0 75 31t31 75v546q0 43 -31 74t-75 31v0zM831 434h-162v-162h-107v162h-162v107h162v162h107v-162h163v-107h-1zM831 434zM716 33q0 -25 -17.5 -42.5t-42.5 -17.5h-496q-25 0 -42.5 17.5
t-17.5 42.5v496q0 25 17.5 42.5t42.5 17.5h8v70h-32q-44 0 -75 -31t-31 -75v-546q0 -43 31 -74t75 -31h545q44 0 75 31t31 74v33h-71v-7v0zM716 33z" />
    <glyph glyph-name="wodequanxian" unicode="&#xe66f;" 
d="M759 271q18 0 31 12.5t13 31.5q0 21 -17 34v0q-51 40 -111 63q40 33 62 80.5t22 100.5q0 100 -70 170t-169.5 70t-169.5 -70t-70 -170q0 -53 22.5 -100.5t61.5 -80.5q-125 -48 -202.5 -158.5t-77.5 -248.5v0q0 -18 12.5 -30.5t31 -12.5t31 12.5t12.5 30.5q0 95 46.5 175
t127 127t175.5 47q116 0 209 -71q13 -12 30 -12zM519.5 441q-63.5 0 -108 44.5t-44.5 107.5t44.5 108t108 45t108 -45t44.5 -108t-44.5 -107.5t-108 -44.5zM918 108h-21v62q0 28 -25.5 48t-61 20t-61 -20t-25.5 -48v-62h-22q-9 0 -15 -6t-6 -13v-135q0 -7 6.5 -13t15.5 -6
h216q8 0 14.5 6t6.5 13v135q0 7 -6.5 13t-15.5 6zM853 108h-86v65q0 14 12.5 22.5t31 8.5t31 -8.5t12.5 -22.5z" />
    <glyph glyph-name="survey" unicode="&#xe74e;" 
d="M731 849q30 0 50.5 -20.5t20.5 -50.5v-329l-389 -399h11h-284q-29 0 -50 20.5t-21 49.5v729h-24h686zM22 896v-24v-752q0 -49 34.5 -83t83.5 -34h284h10l7 7l402 406l7 7v10v345q0 49 -35 83.5t-84 34.5h-686h-23zM778 260l89 -89l18 -20l98 99l-127 127l-96 -100z
M917 253l-35 -36l-59 58l34 37zM772 291l-256 -256l-5 -5l-2 -7l-23 -117l-7 -34l35 7l116 23l7 2l5 5l257 256l16 17l-16 16l-94 93l-16 17l-17 -17v0v0zM789 241l60 -60l-236 -233l-76 -17l19 78zM154 504h541q10 0 17 6.5t7 15.5t-7 15t-17 6h-541q-9 0 -16 -6t-7 -15
t7 -15.5t16 -6.5v0v0zM154 656h541q10 0 17 6.5t7 15.5t-7 15.5t-17 6.5h-541q-9 0 -16 -6.5t-7 -15.5t7 -15.5t16 -6.5v0v0z" />
    <glyph glyph-name="guanlijiaose" unicode="&#xe625;" 
d="M727 245q-37 0 -63.5 -26.5t-26.5 -64t26.5 -64t64 -26.5t64 26.5t26.5 64t-26.5 64t-64.5 26.5v0zM727 110q-18 0 -31 13t-13 31.5t13 31.5t31.5 13t31.5 -13t13 -32q0 -18 -13 -31t-32 -13v0zM967 202q-2 13 -10 21t-19 8h-2q-22 0 -37 15.5t-15 36.5q0 8 5 19
q5 12 1 25t-16 21l-59 33q-7 3 -16 3q-17 0 -29 -12q-23 -23 -41 -23q-9 0 -21.5 8t-19.5 16q-11 12 -29 12q-7 0 -15 -3h-1l-61 -34l-1 -1q-11 -7 -14.5 -20t1.5 -25q5 -14 5 -19q0 -21 -15 -36.5t-36 -15.5h-3q-11 0 -19 -8t-10 -21q-5 -41 -5 -48t5 -48q2 -13 10 -21
t19 -8h3q21 0 36 -15t15 -36q0 -8 -4 -20q-6 -12 -2 -25t15 -21l59 -33q7 -3 15 -3q18 0 29 12q8 8 20.5 17t21.5 9q19 0 42 -26q12 -13 30 -13q7 0 16 4l59 33l2 1q10 7 14 20t-1 25q-5 14 -5 19q0 21 15 36t36 15h3q11 0 18.5 8.5t10.5 21.5v1.5t0.5 4.5t1 6.5t1.5 8t1 9
t0.5 9t0.5 9.5q0 9 -5 48v0zM923 123q-37 -5 -61.5 -33t-24.5 -64q0 -13 5 -30l-43 -24q-11 10 -17 15q-29 22 -55 22t-54 -21q-7 -5 -18 -15l-41 23q5 14 5 30q0 37 -24.5 64.5t-60.5 32.5q-3 21 -3 31t3 32q36 4 60.5 32t24.5 65q0 12 -5 29l44 25q10 -9 18 -15
q28 -20 54 -20q25 0 53 20q11 8 17 14l43 -24q-5 -14 -5 -29q0 -37 24 -65t61 -32q3 -23 3 -32q-1 -17 -3 -31v0zM112 -10v51q0 131 88.5 227t218.5 108v0v0q14 1 32 1h4q90 7 126 39l15 12q43 33 66.5 81t23.5 102q0 97 -69 165.5t-166 68.5t-166 -68.5t-69 -165.5
q0 -54 23.5 -102t66.5 -81l15 -12l-18 -7q-114 -45 -182.5 -145.5t-68.5 -222.5v-81q0 -13 8.5 -21.5t21.5 -8.5h443q-22 27 -37 60h-376v0v0zM276 611q0 72 51.5 122.5t123.5 50.5t123 -50.5t51 -122.5t-51 -122.5t-123 -50.5t-123.5 50.5t-51.5 122.5v0zM276 611z" />
    <glyph glyph-name="fangwuxinxi" unicode="&#xe610;" horiz-adv-x="1039" 
d="M312 371v-29q0 -6 4 -10t10 -4h372q6 0 10 4t4 10v29q0 6 -4 10t-10 4h-372q-6 0 -10 -4t-4 -10zM698 271h-372q-6 0 -10 -4.5t-4 -10.5v-28q0 -6 4 -10.5t10 -4.5h372q6 0 10 4.5t4 10.5v28q0 6 -4 10.5t-10 4.5zM698 156h-372q-6 0 -10 -4t-4 -10v-29q0 -6 4 -10t10 -4
h372q6 0 10 4t4 10v29q0 6 -4 10t-10 4zM326 442h143q6 0 10.5 4.5t4.5 10.5v28q0 6 -4.5 10.5t-10.5 4.5h-143q-6 0 -10 -4.5t-4 -10.5v-28q0 -6 4 -10.5t10 -4.5zM759 673q13 0 22.5 9.5t9.5 21.5v19q0 11 7.5 18.5t18 7.5t18 -7.5t7.5 -18.5v-108q0 -13 9.5 -22t22 -9
t22 9t9.5 22v108q0 37 -26 62.5t-62.5 25.5t-62.5 -25.5t-26 -62.5v-19q0 -12 9 -21.5t22 -9.5zM1011 428l-479 377q-20 16 -39 0l-480 -377q-10 -8 -11.5 -20.5t6.5 -22.5t21 -11.5t23 6.5l71 56v-387q0 -39 27.5 -66t66.5 -27h590q39 0 66.5 27t27.5 66v387l72 -56
q8 -7 19 -7q15 0 24 12q9 10 7.5 22.5t-12.5 20.5zM839 49q0 -13 -9.5 -22t-22.5 -9h-590q-13 0 -22 9t-9 22v436l326 256l327 -256v-436z" />
    <glyph glyph-name="quanxianfenpei" unicode="&#xe648;" horiz-adv-x="1032" 
d="M592 -62h-423q-49 0 -83.5 34.5t-34.5 83.5v517q0 49 34.5 83.5t83.5 34.5h423q43 0 75 -26.5t41 -67.5q25 7 46 10q-12 56 -57 93.5t-105 37.5h-249q8 41 40.5 67.5t74.5 26.5h229q48 0 82.5 -34.5t34.5 -82.5v-107q23 -1 47 -6v113q0 68 -48 116t-116 48h-229
q-62 0 -108 -40.5t-54 -100.5h-127q-68 0 -116.5 -48t-48.5 -117v-517q0 -68 48.5 -116.5t116.5 -48.5h423q53 0 95.5 30.5t59.5 78.5q-23 4 -46 11q-13 -33 -42.5 -53t-66.5 -20zM145 568h314v-36h-314v36zM145 411h242v-36h-242v36zM145 254h242v-36h-242v36zM145 97h314
v-35h-314v35zM965 316l43 16q11 4 7 15l-36 97q-4 11 -15 7l-43 -16q-11 -4 -16 2q-3 3 -5.5 10.5t-0.5 11.5l19 42q5 10 -5 15l-95 43q-10 5 -15 -5l-19 -42q-5 -10 -13 -10q-4 0 -11.5 3.5t-8.5 7.5l-16 43q-4 11 -15 7l-97 -36q-11 -4 -7 -14l16 -44q4 -10 -2 -16
q-3 -2 -10.5 -5t-11.5 -1l-42 19q-10 5 -15 -5l-44 -95q-4 -10 6 -15l42 -19q10 -5 10 -13q-1 -4 -4 -11t-7 -9l-44 -16q-10 -4 -6 -15l35 -97q4 -11 15 -7l43 16q11 4 16 -2q3 -3 5.5 -10.5t1.5 -11.5l-20 -42q-4 -10 6 -15l94 -43q11 -5 16 5l19 42q4 10 13 10
q4 0 11 -3.5t9 -7.5l16 -43q3 -11 14 -7l98 36q10 4 6 14l-15 44q-4 10 2 16q3 2 10.5 5t11.5 1l42 -19q10 -5 15 5l43 94q5 11 -5 16l-42 19q-4 2 -7 9.5t-3 11.5q0 8 11 12zM799 199.5q-45 -16.5 -88 3.5t-59.5 64.5t3.5 88t64.5 60t88 -3.5t60 -64.5t-3.5 -88t-65 -60z
" />
    <glyph glyph-name="left-angle" unicode="&#xf104;" 
d="M726 55l-360 329l360 329q10 9 10 22.5t-9.5 23t-23 9.5t-22.5 -10l-384 -350q-9 -10 -9 -24t9 -24l384 -350q9 -10 22.5 -10t23 9.5t9.5 23t-10 22.5z" />
    <glyph glyph-name="lishi" unicode="&#xe66e;" 
d="M169 177q-151 0 -151 -107.5t151 -107.5t151 107.5t-151 107.5v0zM169 177zM988 738h-86q-10 0 -15.5 -6t-5.5 -16v-108h-44v151q0 10 -5.5 16t-15.5 6h-86q-10 0 -16 -6t-6 -16v-108h-43v108q0 10 -6 16t-16 6h-86q-10 0 -15.5 -6t-5.5 -16v-108h-44v65q0 10 -5.5 16
t-15.5 6h-86q-10 0 -16 -6t-6 -16v-108h-43v87q0 107 -151 107t-151 -107v-518v0q49 43 151 43t151 -43v0v43h43v-108q0 -9 6 -15t16 -6h86q10 0 15.5 6t5.5 15v151h44v-107q0 -10 5.5 -16t15.5 -6h86q10 0 16 6t6 16v107h43v-107q0 -10 6 -16t16 -6h86q10 0 15.5 6t5.5 16
v64h44v-108q0 -9 5.5 -15t15.5 -6h86q10 0 16 6t6 15v604q0 10 -6 16t-16 6v0zM363 263h-43v302h43v-302v0zM536 306h-44v302h44v-302v0zM708 306h-43v302h43v-302v0zM881 263h-44v302h44v-302v0zM881 263z" />
    <glyph glyph-name="chain-broken" unicode="&#xe62f;" horiz-adv-x="1366" 
d="M830 610l-34 -59q78 -56 99 -151t-27 -181q-40 -70 -112 -103v0q-49 -23 -103 -23t-103 23v0q-72 33 -112 103q-48 86 -27 181t99 151l-34 59q-102 -70 -130 -192.5t34 -232.5q43 -76 116 -118t156 -42h1v0h0.5h0.5q83 0 156 42t116 118q62 110 34 232.5t-130 192.5z
M653 452q19 0 32 13.5t13 31.5v225q0 19 -13 32t-32 13t-32 -13t-13 -32v-225q0 -18 13 -31.5t32 -13.5zM459 580.5q0 -14.5 10 -24.5t24 -10t24 10t10 24.5t-10 24.5t-24 10t-24 -10t-10 -24.5zM779 580.5q0 -14.5 10 -24.5t24 -10t24 10t10 24.5t-10 24.5t-24 10t-24 -10
t-10 -24.5z" />
    <glyph glyph-name="wallet" unicode="&#xe60b;" 
d="M938 82h-62v500q0 17 -12 29t-30 12h-166v125q0 30 -9 46t-33 16h-416q-26 0 -44 -18t-18 -44v-666h-62q-9 0 -15 -6t-6 -14v-84q0 -8 6 -14t15 -6h852q9 0 15 6t6 14v84q0 8 -6 14t-15 6zM377 166q0 -18 -12.5 -30t-29.5 -12h-41q-18 0 -30 12t-12 30v41q0 17 12 29.5
t30 12.5h41q17 0 29.5 -12.5t12.5 -29.5v-41zM377 374q0 -18 -12.5 -30t-29.5 -12h-41q-18 0 -30 12t-12 30v41q0 17 12 29.5t30 12.5h41q17 0 29.5 -12.5t12.5 -29.5v-41zM377 582q0 -18 -12.5 -30t-29.5 -12h-41q-18 0 -30 12t-12 30v41q0 17 12 29.5t30 12.5h41
q17 0 29.5 -12.5t12.5 -29.5v-41zM564 166q0 -18 -12 -30t-30 -12h-41q-17 0 -29.5 12t-12.5 30v41q0 17 12.5 29.5t29.5 12.5h41q18 0 30 -12.5t12 -29.5v-41zM564 374q0 -18 -12 -30t-30 -12h-41q-17 0 -29.5 12t-12.5 30v41q0 17 12.5 29.5t29.5 12.5h41q18 0 30 -12.5
t12 -29.5v-41zM564 582q0 -18 -12 -30t-30 -12h-41q-17 0 -29.5 12t-12.5 30v41q0 17 12.5 29.5t29.5 12.5h41q18 0 30 -12.5t12 -29.5v-41zM793 228q0 -9 -6 -15t-15 -6h-42q-8 0 -14 6t-6 15v42q0 8 6 14t14 6h42q9 0 15 -6t6 -14v-42zM793 394q0 -8 -6 -14t-15 -6h-42
q-8 0 -14 6t-6 14v42q0 9 6 15t14 6h42q9 0 15 -6t6 -15v-42z" />
    <glyph glyph-name="raxiconcaidanpeizhi" unicode="&#xe663;" 
d="M888 792h-245q-11 45 -47.5 74.5t-83.5 29.5t-83.5 -29.5t-47.5 -74.5h-245q-52 0 -88.5 -36.5t-36.5 -88.5v-669q0 -52 36.5 -88.5t88.5 -36.5h376q13 0 22 9t9 22t-9 22t-22 9h-376q-26 0 -44 18.5t-18 44.5v669q0 26 18 44.5t44 18.5h241h270h241q26 0 44 -18.5
t18 -44.5v-293q0 -13 9.5 -22.5t22 -9.5t22 9.5t9.5 22.5v293q0 52 -36.5 88.5t-88.5 36.5zM447 792q9 19 26.5 30t38.5 11t38.5 -11t26.5 -30h-130zM392 527h418q14 0 23 9.5t9 23t-9 22.5t-23 9h-418q-13 0 -22.5 -9t-9.5 -22.5t9.5 -23t22.5 -9.5zM182 627h127v-135h-127
v135zM587 345.5q0 13.5 -9.5 23t-22.5 9.5h-163q-13 0 -22.5 -9.5t-9.5 -23t9.5 -22.5t22.5 -9h163q13 0 22.5 9t9.5 22.5zM182 413h127v-135h-127v135zM392 164q-13 0 -22.5 -9.5t-9.5 -22.5t9.5 -22.5t22.5 -9.5h81q14 0 23 9.5t9 22.5t-9 22.5t-23 9.5h-81zM182 199h127
v-135h-127v135zM968.5 103.5q-4.5 2.5 -6.5 9t-3 14.5t-1 9q-4 16 12 35q4 6 11.5 12t12 9.5t4.5 4.5q4 38 -27 59q-7 5 -25.5 -3.5t-27.5 -9.5q-5 0 -9.5 2t-7.5 4t-6 5l-3 3q-19 14 -22.5 31.5t0.5 30.5t3 15q-4 7 -22.5 16t-36.5 4q-14 -3 -21.5 -24.5t-16.5 -27.5
q-9 -7 -34 -4q-16 2 -27.5 14.5t-20.5 22.5t-19 7q-18 -5 -32 -17.5t-15 -24.5q0 -9 9 -22.5t8 -22.5q0 -4 -2.5 -9t-6.5 -10.5t-6 -7.5q-2 -5 -12.5 -10t-21.5 -6q-7 0 -20.5 3.5t-18.5 2.5q-5 -2 -12 -10.5t-8 -17.5q-1 -3 -2 -10.5t-1.5 -12t0.5 -10.5t5 -11
q6 -9 19.5 -12.5t21.5 -10.5q3 -4 5.5 -8t2.5 -7t0.5 -7t0.5 -5q3 -23 -12 -42q-3 -3 -13.5 -9.5t-12.5 -11.5q-5 -18 2.5 -34.5t18.5 -25.5q10 -7 33.5 2t28.5 9q13 1 26 -15q15 -18 15 -35q0 -3 -2.5 -18.5t0.5 -17.5q5 -12 21 -18.5t32 -6.5q12 0 18 8.5t11.5 22
t10.5 19.5q3 3 6.5 5.5t6.5 3t5.5 1t5.5 0t4 -0.5q21 2 36 -11q3 -3 8 -13t8 -12q19 -13 33 -6q1 1 7.5 4t9 4.5t7 5t8 7.5t6.5 9q4 6 -4.5 23t-8.5 26q-1 7 2 13.5t6 10.5t7 8.5t4 5.5q3 4 14 7.5t21 3.5q7 0 15 -1.5t12.5 -2.5t5.5 0q10 5 16 20q1 2 1 3q5 12 5 32
q0 9 -6.5 14.5t-20 11.5t-18 8.5zM774 2q-46 0 -78 32.5t-32 78t32 78t78 32.5t78 -32.5t32 -78t-32 -78t-78 -32.5z" />
    <glyph glyph-name="icon05" unicode="&#xe613;" 
d="M819 696h-615q-5 0 -8.5 3.5t-3.5 8.5v2q0 5 3.5 8.5t8.5 3.5h615q6 0 9.5 -3.5t3.5 -8.5v-2q0 -5 -3.5 -8.5t-9.5 -3.5zM819 520h-615q-5 0 -8.5 3.5t-3.5 8.5v2q0 5 3.5 8.5t8.5 3.5h615q6 0 9.5 -3.5t3.5 -8.5v-2q0 -5 -3.5 -8.5t-9.5 -3.5zM435 352h-231
q-5 0 -8.5 3.5t-3.5 8.5v2q0 5 3.5 8.5t8.5 3.5h231q5 0 9 -3.5t4 -8.5v-2q0 -5 -4 -8.5t-9 -3.5zM956 390q6 6 0 12l-33 33q-6 6 -12 0l-217 -217q0 -1 -6.5 -16t-12.5 -30l-6 -15q-1 -4 2 -7t7 -2q60 25 61 25zM945.5 490q5.5 0 9.5 4t4 9v242q0 35 -25.5 60.5t-60.5 25.5
h-374h-349v0q-33 0 -58 -23l-6 -6q-22 -24 -22 -57v0v-723v0q0 -33 22 -58l6 -6q25 -22 58 -22v0h349h374q35 0 60.5 25t25.5 61v257q0 6 -4 10t-9.5 4t-9.5 -4t-4 -10v-230q0 -50 -17.5 -68t-68.5 -18h-347h-322q-47 0 -66.5 19.5t-19.5 66.5v669q0 47 19.5 66.5t66.5 19.5
h322h347q51 0 68.5 -18t17.5 -68v-215q0 -5 4 -9t9.5 -4zM216 43v24q0 6 1 12v6l1 4v0v2q5 32 22 66q38 71 99 100q2 0 3 1h1v1l6 2q6 1 12 3q-2 -1 1 -1l2 1h2.5h2.5h-1q0 -1 0.5 -1h1.5h0.5h0.5v0q2 -1 3 -2v1q0 -1 1 -2v0l1 -1v0q0 -1 0.5 -2t0.5 -1.5v-2.5v1l1 -8
q0 -2 -1 -4v-1.5v-1.5v0q-1 -6 -2 -10q-2 -10 -6 -23l-7 -21t-8 -23q-18 -59 14 -66q21 -5 49 16q10 7 25 20q8 7 11 9q6 6 10 8q6 4 10 7q3 2 5 3q1 0 3 1v0h1q1 1 2.5 1t2.5 1v0h2h2h-1q1 -1 2 -1l-1 1l1 -1l-1 1v0q1 0 1 -0.5v-0.5v1l1 -3v-1v-2v-2q0 -3 -1 -9v0v-2
q0 -2 -1 -4q-1 -4 -2 -10q-1 -4 -6 -21q-7 -28 -8 -41q-1 -24 13 -32q20 -11 45 4q5 4 10 8.5t11 11t9 9.5q2 1 4 3l1 1v0q3 2 8 5v0q1 0 1.5 0.5l0.5 0.5q1 0 5 1q-2 -1 1 0h2h3h1v0q13 -2 28 -10q6 -4 12 0t6 10t-6 11q-35 19 -59 11q-15 -5 -34 -26q-5 -4 -7 -7
q-2 -2 -4 -3l-0.5 -1l-0.5 -1h-1q-2 -2 -8 -5v0q-1 0 -1.5 -0.5t-1.5 -0.5q-1 -1 -6 -2q2 1 -1 0h-1.5h-1h-1.5v0h-1h2l-2 1h-1l1 -1q-2 1 -1 1h1l-1 1v-1v0.5v0.5v-1v0.5v0.5q0 1 -1 2v0v7q0 1 1 4v0v3q1 8 4 20q10 39 11 42q5 26 -2 38q-12 20 -38 11q-17 -6 -48 -33
q-9 -7 -11 -10q-7 -5 -11 -8q-6 -4 -11 -7q-3 -2 -5 -3q-1 0 -1.5 -0.5t-1.5 -0.5q-2 -1 1 0q-1 -1 -2 -1q-2 -1 -5 -2v0h-3h-1h-1v0q-1 0 -3 1v0h-1l1 -1q0 1 -1 1l1 -1v1v0l-1 1l1 -2l-1 3v0v1v3v2.5v1.5v0l0.5 1l0.5 1q1 8 5 20q2 9 9 28t11 33.5t5 28.5q2 24 -11 36
q-15 15 -43 8q-26 -7 -55 -29q-32 -24 -55 -57q-45 -63 -46 -134v-23q0 -7 6 -10.5t12 -0.5t6 11v0z" />
    <glyph glyph-name="remove" unicode="&#xe64e;" 
d="M387 393zM799 585q0 11 7 18t17.5 7t18 -7t7.5 -18v-444q0 -35 -25 -60q-1 -1 -2 -1q-24 -24 -58 -24h-444q-35 0 -60 25t-25 60v444q0 11 7.5 18t18 7t17.5 -7t7 -18v-444q0 -14 10.5 -24t24.5 -10h444q14 0 24 9l1 1q10 10 10 24v444zM517 567v-374q0 -11 7.5 -18
t17.5 -7t17.5 7t7.5 18v374q0 11 -7.5 18t-17.5 7t-17.5 -7t-7.5 -18v0v0zM383 567v-374q0 -11 7.5 -18t17.5 -7t17.5 7t7.5 18v374q0 11 -7.5 18t-17.5 7t-17.5 -7t-7.5 -18v0v0zM651 567v-374q0 -11 7.5 -18t17.5 -7t17.5 7t7.5 18v374q0 11 -7.5 18t-17.5 7t-17.5 -7
t-7.5 -18v0v0zM199 668q-10 0 -17.5 7.5t-7.5 17.5t7.5 17.5t17.5 7.5h201l56 57q7 7 17 7v0h138q11 0 19 -9l55 -55h200q10 0 17.5 -7.5t7.5 -17.5t-7.5 -17.5t-17.5 -7.5h-211q-10 0 -17 7l-57 57h-116l-54 -55q-8 -9 -20 -9h-211z" />
    <glyph glyph-name="a10" unicode="&#xe651;" 
d="M753 522h-8v38v2q-2 96 -70 163.5t-163 67.5t-163 -67.5t-70 -162.5v-1v-39h-8q-37 0 -63 -26t-26 -64v-121q0 -10 7 -17t16.5 -7t17 7t7.5 17v121q0 17 12.5 29.5t28.5 12.5h482q16 0 28.5 -12.5t12.5 -29.5v-245q0 -62 -24.5 -89.5t-81.5 -27.5h-352q-57 0 -81.5 27
t-24.5 90q0 10 -7.5 17t-17 7t-16.5 -8t-7 -18q0 -165 154 -165h352q76 0 115 42t39 123v246q0 37 -26 63.5t-63 26.5v0zM328 559q0 76 54 131t130 55t130 -54.5t54 -130.5v-37h-368v36v0zM512 159q14 0 24.5 10t10.5 25v84q28 19 28 51q0 26 -17.5 43.5t-42.5 17.5
q-24 0 -41.5 -18.5t-17.5 -42.5q-1 -15 5 -29.5t17 -21.5v-84q-1 -15 9 -25t25 -10v0z" />
    <glyph glyph-name="liubx" unicode="&#xe615;" 
d="M876 651v0h-1l-2 2l-301 173q-24 18 -54.5 18t-54.5 -18l-293 -169q-25 -11 -40.5 -34t-15.5 -51v-356v0v-2q0 -27 13.5 -49t35.5 -34l305 -175q22 -15 49 -15t50 15l309 178v0q44 28 44 80v0h1v352v5q0 52 -45 80zM180 245v-1v-1v-8v0v-0.5v-0.5q0 -7 -5 -11.5
t-11.5 -4.5t-11.5 4.5t-5 11.5v0.5v0.5v0v312v1v9q0 26 14 47t37 32l269 155q4 3 9 3q7 0 12 -5t5 -11q0 -10 -9 -15q-7 -3 -12 -7l-246 -142q-21 -9 -33.5 -28.5t-12.5 -42.5v-9v-1v-288v0zM838 150l-276 -160h-1q-20 -12 -43.5 -12t-44.5 12v0l-275 159q-9 4 -9 15
q0 7 5 11.5t12 4.5q4 0 8 -2v0h0.5h0.5v-1q2 -1 3 -1v-1l259 -149v0q19 -11 40.5 -11t39.5 11h1l260 150v0q1 1 3 2q4 3 9 3q7 0 12 -5t5 -11q0 -11 -9 -15zM888 555v-320v0v0q0 -7 -5 -12t-11.5 -5t-11.5 5t-5 12v0v0v8v0v0v298v0v0.5v1.5q0 23 -12.5 42.5t-33.5 28.5
l-246 142l-10 6q-10 4 -10 15q0 7 4.5 12t11.5 5q5 0 9 -3v0l269 -155q23 -11 37 -32t14 -47v-0.5v-0.5v-1z" />
    <glyph glyph-name="wenjian" unicode="&#xe605;" 
d="M926 -36l-94 -22q-36 -9 -45 -4t-18 40l-9 36l195 46l6 -23q2 -5 4 -14q9 -34 4 -42t-43 -17v0zM635 473q-8 35 -3 43t42 17l94 23q36 8 44.5 4.5t15.5 -29.5l114 -423l-195 -46l-112 411v0zM503 -64h-59q-40 0 -52.5 7.5t-12.5 42.5v732h188v-732q0 -36 -10 -43t-54 -7
v0zM379 782q0 34 12.5 42t52.5 8h59q40 0 52 -8t12 -42v-39h-188v39v0zM250 -64h-148q-38 0 -45 7t-7 43v42h252v-42q0 -36 -7 -43t-45 -7v0zM50 96h252v-44h-252v44v0zM50 483h252v-362h-252v362v0zM50 595q0 36 7 43t45 7h148q38 0 45 -7t7 -43v-63h-252v63v0zM50 595z
" />
    <glyph glyph-name="icon79" unicode="&#xe769;" 
d="M736 716h-86q-16 57 -68.5 86t-109.5 12q-36 -10 -62 -36t-36 -62h-86q-66 0 -113 -47t-47 -113v-448q0 -66 47 -113t113 -47h448q66 0 113 47t47 113v448q0 66 -47 113t-113 47zM512 731q23 0 39 -16t16 -39t-16 -39t-39 -16t-39 16t-16 39t16 39t39 16zM539 208h-220
q-16 0 -28 12t-12 28.5t12 28t28 11.5h220q16 0 28 -11.5t12 -28t-12 -28.5t-28 -12zM705 384h-386q-16 0 -28 12t-12 28.5t12 28t28 11.5h386q16 0 28 -11.5t12 -28t-12 -28.5t-28 -12z" />
    <glyph glyph-name="01" unicode="&#xe611;" 
d="M491 618l74 -150l166 -24l-120 -117l28 -165l-148 78l-148 -78l28 165l-119 117l165 24zM491 468l26 -51l57 -9l-41 -40l9 -57l-51 27l-51 -27l10 57l-41 40l57 9z" />
    <glyph glyph-name="jiaoseguanli" unicode="&#xe6a8;" 
d="M667 316h-160v34h229q49 17 100 17q52 0 103 -18v393q0 22 -15 37t-37 15h-819q-21 0 -36 -15t-15 -37v-580q0 -21 15 -36t36 -15h466q10 63 45 116.5t88 88.5zM246 640q26 0 44.5 -19t18.5 -46t-18.5 -46t-44.5 -19t-44.5 19t-18.5 46t18.5 46t44.5 19zM239 265
q-46 0 -86.5 19t-67.5 51q5 56 49 94t105 38t105 -38t49 -94q-27 -32 -67.5 -51t-86.5 -19zM427 640h443v-34h-443v34zM491 486h379v-34h-379v34zM1004 78l-44 30q0 3 1 9t1 10q0 13 -2 19l40 32q5 5 2 11l-38 66q-5 5 -12 2l-48 -19q-9 8 -32 19l-8 49q1 4 -1.5 7t-6.5 3
h-76q-3 0 -6.5 -2.5t-3.5 -5.5l-8 -51q-7 -2 -32 -19l-46 19q-7 3 -13 -4l-39 -66q-4 -3 4 -11l40 -30q0 -3 -1 -9t-1 -10q0 -13 2 -19l-40 -32q-5 -5 -2 -11l38 -66q5 -4 12 -2l48 19q9 -8 32 -19l8 -49q0 -8 10 -8h76q3 0 6.5 2.5t3.5 5.5l7 49q23 11 33 19l48 -19
q8 -4 11 4l39 66q4 8 -2 11zM818 61q-27 0 -47 19.5t-20 46.5t20 46.5t47 19.5t47 -19.5t20 -46.5t-20 -46.5t-47 -19.5z" />
    <glyph glyph-name="quanzheng" unicode="&#xe736;" 
d="M909 163q0 72 -51 123.5t-123.5 51.5t-124 -51.5t-51.5 -123.5q0 -75 54 -126l-53 -92l70 5l31 -63l59 102q7 -1 14 -1t14 1l59 -102l31 63l70 -5l-53 92q54 51 54 126zM824.5 72.5q-37.5 -37.5 -90.5 -37.5t-90.5 37.5t-37.5 90.5t37.5 90.5t90.5 37.5t90.5 -37.5
t37.5 -90.5t-37.5 -90.5zM303 666q11 0 18.5 7.5t7.5 18.5v137v52l-214 -215h188zM541 79q-18 40 -18 84q0 87 62 149t149 62q41 0 79 -15v491q0 13 -9 22t-21 9h-413v-225q0 -13 -9 -21.5t-22 -8.5h-224v-635q0 -13 9 -22t21 -9h382l42 72q-18 22 -28 47zM452 701h194
q13 0 22 -9t9 -22t-9 -22t-22 -9h-194q-12 0 -21 9t-9 22t9 22t21 9zM270 469h388q12 0 21 -9t9 -21.5t-8.5 -21.5t-21.5 -9h-388q-13 0 -22 9t-9 21.5t9 21.5t22 9zM451 177h-183q-12 0 -20.5 9t-8.5 21.5t8.5 21.5t20.5 9h183q12 0 20.5 -9t8.5 -21.5t-8.5 -21.5t-20.5 -9
z" />
    <glyph glyph-name="fangwuchuzu" unicode="&#xe603;" 
d="M94 292q-42 62 -47 70l1 1l1 1l1 1l1 1l1 1l1 1l1 1l1 1l1 1l1 1l1 1l1 1l1 1l1 1l1 1l1 1l1 1l1 1l1 1l1 1l1 1l1 1l1 1l1 1l1 1l1 1l1 1l1 1l1 1l1 1l1 1l1 1l1 1l1 1l1 1l1 1l1 1l1 1l1 1l1 1h1l1 1l1 1l1 1l1 1l1 1l1 1l1 1l1 1l1 1l1 1l1 1l1 1l1 1l1 1l1 1l1 1l1 1
l1 1l1 1l1 1l1 1l1 1l1 1l1 1l1 1l1 1l1 1l1 1l1 1l1 1l1 1l1 1l1 1l1 1l1 1l1 1l1 1l1 1l1 1l1 1l1 1l1 1l1 1l1 1l1 1l1 1l1 1l1 1l1 1l1 1l1 1l1 1l1 1l1 1l1 1l1 1l1 1l1 1l1 1l1 1l1 1l1 1l1 1l1 1l1 1l1 1l1 1l1 1l1 1l1 1l1 1l1 1l1 1l1 1h1l1 1l1 1l1 1l1 1l1 1l1 1
l1 1l1 1l1 1l1 1l1 1l1 1l1 1l1 1l1 1l1 1l1 1l1 1l1 1l1 1l1 1l1 1l1 1l1 1l1 1l1 1l1 1l1 1l1 1l1 1l1 1l1 1l1 1l1 1l1 1l1 1l1 1l1 1l1 1l1 1l1 1l1 1l1 1l1 1l1 1l1 1l1 1l1 1l1 1l1 1l1 1l1 1l1 1l1 1l1 1l1 1l1 1l1 1l1 1l1 1l1 1l1 1l1 1l1 1l1 1l1 1l1 1l1 1l1 1
l1 1l1 1l1 1l1 1h1l1 1l1 1l1 1l1 1l1 1l1 1l1 1l1 1l1 1l1 1l1 1l1 1l1 1l1 1l1 1l1 1l1 1l1 1l1 1l1 1l1 1l1 1l1 1l1 1l1 1l1 1l1 1l1 1l1 1l1 1l1 1l1 1l1 1l1 1l1 1l1 2l1 1l1 1l1 1l1 1l1 1l1 1l1 1l1 1l1 1l1 1l1 1l1 1l1 1l1 1l1 1h1l1 1l1 1l1 1l1 1l1 1l1 1l1 1
l1 1l1 1l1 1l1 1l1 1l1 1l1 1l1 1l1 1l1 1l1 1l1 1l1 1l1 1l1 1l1 1l1 1l1 1l1 1l1 1l1 1l1 1l1 1l1 1l1 1l1 1l1 1l1 1l1 1l1 1l1 1l1 1l1 1l1 1l1 1l1 1l1 1l1 1l1 1l1 1l1 1l1 1l1 1l1 1l1 1l1 1l1 1l1 1l1 1l1 1h1l1 1l1 1l1 1l1 1l1 1l1 1l1 1l1 1l1 1l1 1l1 1l1 1l1 1
l1 1l1 1l1 1l1 1l1 1l1 1l1 1l1 1l1 1l1 1l1 1l1 1l1 1l1 1l1 1l1 1l1 1l1 1l1 1l1 1l1 1l1 1l1 1l1 1l1 1l1 1l1 1l1 1l1 1l1 1l1 1l1 1l1 1l1 1l1 1l1 1l1 1l1 1l1 1l1 1l1 1l1 1l1 1l1 1l1 1l1 1l1 1h1l1 1l1 1l1 1l1 1l1 1l1 1l1 1l1 1l1 1l1 1l1 1l1 1l1 1l1 1l1 1l1 1
l1 1l1 1l1 1l1 1l1 1l1 1l1 1l1 1l1 1l1 1l1 1l1 1l1 1l1 1l1 1l1 1l1 1l1 1l1 1l1 1l1 1l1 1l1 1l1 1l1 1l1 1l1 1l1 1l1 1l1 1l1 1l1 1l1 1l1 1l1 1l1 1l1 1l1 1l1 1l1 1l1 1l1 1l1 1l1 1l1 1l1 1l1 1l1 1l1 1h1l1 1l1 1l1 1l1 1l1 1l1 1l1 1l1 1l1 1l1 1l1 1l1 1l1 1l1 1
l1 1l1 1l1 1l1 1l1 1l1 1l1 1l1 1l1 1l1 1l1 1l1 1l1 1l1 1l1 1l1 1l1 1l1 1l1 1l1 1l1 1l1 1l1 1l1 1l1 1l1 -1l1 -1l1 -1l1 -1l1 -1l1 -1h1l1 -1l1 -1l1 -1l1 -1l1 -1l1 -1v-1l1 -1l1 -1l1 -1l1 -1l1 -1l1 -1l1 -1h1l1 -1l1 -1l1 -1l1 -1l1 -1l1 -1l1 -1l1 -1l1 -1l1 -1
l1 -1l1 -1l1 -1l1 -1h1l1 -1l1 -1l1 -1l1 -1l1 -1l1 -1l1 -1l1 -1l1 -1l1 -1l1 -1l1 -1l1 -1l1 -1h1l1 -1l1 -1l1 -1l1 -1l1 -1l1 -1l1 -1l1 -1v-1l1 -1l1 -1l1 -1l1 -1l1 -1h1l1 -1l1 -1l1 -1l1 -1l1 -1l1 -1l1 -1l1 -1l1 -1l1 -1l1 -1l1 -1l1 -1l1 -1l1 -1h1l1 -1l1 -1
l1 -1l1 -1l1 -1l1 -1l1 -1l1 -1l1 -1l1 -1l1 -1l1 -1l1 -1l1 -1l1 -1h1l1 -1l1 -1l1 -1l1 -1l1 -1l1 -1l1 -1l1 -1l1 -1l1 -1l1 -1l1 -1l1 -1l1 -1l1 -1h1l1 -1l1 -1l1 -1l1 -1v-1l1 -1l1 -1l1 -1l1 -1l1 -1l1 -1l1 -1l1 -1l1 -1l1 -1l1 -1h1l1 -1l1 -1l1 -1l1 -1l1 -1l1 -1
l1 -1l1 -1l1 -1l1 -1l1 -1l1 -1l1 -1l1 -1l1 -1l1 -1h1l1 -1l1 -1l1 -1l1 -1l1 -1l1 -1l1 -1l1 -1l1 -1l1 -1l1 -1l1 -1l1 -1l1 -1l1 -1l1 -1h1l1 -1l1 -1l1 -1l1 -1l1 -1l1 -1l1 -1l1 -1l1 -1l1 -1l1 -1l1 -1l1 -1l1 -1l1 -1l1 -1h1l1 -1l1 -1l1 -1l1 -1l1 -1l1 -1l1 -1
l1 -1l1 -1l1 -1l1 -1l1 -1l1 -1l1 -1l1 -1v-1l1 -1h1l1 -1l1 -1l1 -1l1 -1l1 -1l1 -1l1 -1l1 -1l1 -1l1 -1l1 -1l1 -1l1 -1l1 -1l1 -1l1 -1l1 -1h1l1 -1l1 -1l1 -1l1 -1l1 -1l1 -1l1 -1l1 -1l1 -1l1 -1l1 -1l1 -1l1 -1l1 -1l1 -1l1 -1l1 -1l1 -1h1l1 -1l1 -1l1 -1l1 -1l1 -1
l1 -1l1 -1l1 -1l1 -1l1 -1l1 -1l1 -1l1 -1l1 -1l1 -1l1 -1l1 -1l1 -1h1l1 -1l1 -1l1 -1l1 -1l1 -1l1 -1l1 -1l1 -1l1 -1l1 -1l1 -1l1 -1l1 -1l1 -1l1 -1l1 -1l1 -1l1 -1h1l1 -1l1 -1l1 -1l1 -1l1 -1l1 -1l1 -1l1 -1l1 -1l1 -1l1 -1l1 -1l1 -1l1 -1l1 -1l1 -1l1 -1l1 -1h1
l1 -1l1 -1l1 -1l1 -1l1 -1l1 -1l1 -1l1 -1l1 -1l1 -1l1 -1l1 -1l1 -1l1 -1l1 -1l1 -1l1 -1l1 -1l1 -1h1l1 -1l1 -1l1 -1l1 -1l1 -1l1 -1l1 -1l1 -1l1 -1l1 -1l1 -1l1 -1l1 -1l1 -1l1 -1l1 -1l1 -1l1 -1l1 -1h1l1 -1l1 -1l1 -1l1 -1l1 -1l1 -1l1 -1l1 -1l1 -1l1 -1l1 -1l1 -1
l1 -1l1 -1l1 -1l1 -1l1 -1l1 -1l1 -1l1 -1h1l1 -1l1 -1l1 -1l1 -1l1 -1l1 -1l1 -1l1 -1l1 -1l1 -1l1 -1l1 -1l1 -1l1 -1l1 -1l1 -1l1 -1l1 -1l1 -1l1 -1h1l1 -1l1 -1l1 -1l1 -1l1 -1l1 -1l1 -1l1 -1l1 -1l1 -1l1 -1l1 -1l1 -1l1 -1l1 -1l1 -1l1 -1l1 -1l1 -1l1 -1h1l1 -1
l1 -1l1 -2l1 -1l1 -1l1 -1l1 -1l1 -1l1 -1l1 -1l1 -1l1 -1l1 -1l1 -1l1 -1l1 -1h1l1 -1l1 -1l1 -1l1 -1l1 -1l1 -1l1 -1l1 -1l1 -1l1 -1l1 -1l1 -1l1 -1l1 -1l1 -1l1 -1l1 -1l1 -1l1 -1h1l1 -1l1 -1l1 -1l1 -1l1 -1l1 -1l1 -1l1 -1l1 -1l1 -1l1 -1l1 -1l1 -1l1 -1l1 -1l1 -1
l1 -1l1 -1l1 -1l1 -1h1l1 -1l1 -1l1 -1l1 -1l1 -1l1 -1l1 -1l1 -1l1 -1l1 -1l1 -1l1 -1l1 -1l1 -1l1 -1l1 -1l1 -1l1 -1l1 -1l1 -1l1 -1h1l1 -1l1 -1l1 -1l2 -2q-33 -21 -71 -47q-192 183 -411 390q-93 -94 -416 -416zM781 249h73v-103q0 -132 -1 -143q0 -36 -20.5 -57
t-55.5 -21h-519q-31 0 -52 17.5t-21 45.5q-1 27 -1 260h69v-250h528v251zM630 160q3 -3 9.5 -9t9.5 -9q-23 -7 -24 -7q-76 -2 -135 0q-5 0 -10 1.5t-11 4t-9 3.5q3 2 13.5 8t18.5 11v219h131v-222h7zM517 234h82v50h-82v-50zM518 157h81v52h-81v-52zM518 360v-50h81v50h-81z
M485 231q-9 -10 -16 -10.5t-11 5t-9.5 11t-11.5 4.5v-83q0 -21 -1 -23q0 -1 -10 -14l-5 5t-5 5.5t-2 4.5q-1 9 -1 77l-1 20q-15 -26 -32 -54q-5 2 -8 3q-5 22 15 56.5t18 53.5q-16 1 -17.5 1.5t-19.5 10.5q19 11 20.5 11.5t23.5 2.5v36q-27 3 -32 6t-7 17q75 7 91 8
q2 0 4.5 -2.5t7 -8t7.5 -8.5q-10 -2 -24 -4t-20 -4v-40q18 -2 20 -2q2 -1 21 -11q-18 -11 -20 -11q-1 -1 -22 -2q0 -5 -0.5 -8t-0.5 -6v-4q17 -14 48 -43z" />
    <glyph glyph-name="jibenxinxi" unicode="&#xe633;" horiz-adv-x="1138" 
d="M1131 740q0 63 -44 107t-107 44h-822q-62 0 -106.5 -44t-44.5 -107v-666q0 -63 44.5 -107t106.5 -44h822q63 0 107 44t44 107v666v0zM1064 76q0 -35 -25 -60t-60 -25h-818q-36 0 -61 25t-25 60v662q0 35 25 60t61 25h818q35 0 60 -25t25 -60v-662v0zM534 354
q35 25 56 64.5t21 85.5q0 76 -54 130t-130.5 54t-131 -54t-54.5 -130q0 -46 21 -85.5t57 -64.5q-68 -31 -109 -94.5t-41 -139.5q0 -14 10 -24t24 -10t24 10t10 24q0 78 55.5 133.5t133.5 55.5t133.5 -55.5t55.5 -133.5q0 -14 10 -24t24 -10t24.5 10t10.5 24
q0 76 -41.5 139.5t-108.5 94.5v0zM426 620q48 0 82 -34t34 -82t-34 -82t-82 -34t-82 34t-34 82t34 82t82 34v0zM916 660h-163q-14 0 -24 -10t-10 -24t10 -24t24 -10h163q14 0 24 10t10 24t-10 24t-24 10v0zM916 322h-163q-14 0 -24 -8.5t-10 -22t10 -22t24 -8.5h163
q14 0 24 8.5t10 22t-10 22t-24 8.5v0zM916 491h-163q-14 0 -24 -10t-10 -24t10 -23.5t24 -9.5h163q14 0 24 9.5t10 23.5t-10 24t-24 10v0z" />
    <glyph glyph-name="chaxun" unicode="&#xe65e;" 
d="M367 609q-47 -47 -47 -113t47 -112.5t113 -46.5t112.5 46.5t46.5 112.5t-46.5 113t-112.5 47t-113 -47zM523.5 859q-109.5 0 -203 -54.5t-147.5 -147.5t-54 -203t54 -203t147.5 -147t203 -54t203 54t147.5 147t54 203t-54 203t-147.5 147.5t-203 54.5zM746 229
q-7 -7 -16.5 -7t-16.5 7l-106 106q-60 -48 -138.5 -44t-133.5 60q-60 60 -60 145t60 145t145 60t145 -60q55 -56 59 -134t-43 -138l105 -106q7 -7 7 -17t-7 -17z" />
    <glyph glyph-name="wenjian1" unicode="&#xe626;" horiz-adv-x="1200" 
d="M1101 565h-16v117q0 30 -21.5 52t-51.5 22h-460v66q0 31 -21.5 52.5t-52.5 21.5h-404q-31 0 -52.5 -21.5t-21.5 -52.5v-876q0 -31 21.5 -52.5t52.5 -21.5h938q30 0 51.5 21.5t21.5 52.5l90 545q0 31 -21.5 52.5t-52.5 21.5v0zM55 786q0 30 12.5 42.5t42.5 12.5h331
q31 0 43.5 -12.5t12.5 -42.5v-86h2h53h423q30 0 42.5 -12t12.5 -43v-80h-867q-30 0 -51.5 -21.5t-21.5 -52.5l-35 -224v519v0zM1030 -18q0 -30 -12.5 -42.5t-42.5 -12.5h-865q-30 0 -42.5 12.5t-12.5 42.5l90 472q0 31 12.5 43t42.5 12h864q31 0 43.5 -12t12.5 -43l-90 -472
v0z" />
    <glyph glyph-name="anquan" unicode="&#xe6d6;" 
d="M513 500q-14 0 -24.5 -10t-10.5 -24v-52h69v52q0 14 -10 24t-24 10zM851 619l-17 21q-27 0 -53.5 7.5t-39.5 14.5l-12 6l-138 82l-22 14q-18 14 -43 19h-1h-1q-5 1 -12 1v0h-1q-7 0 -13 -1h1h-1q-30 -6 -53 -26l5 4l-8 -6l-147 -87q-43 -27 -105 -28l-17 -21
q2 -69 16 -155v-7q12 -88 41 -162.5t66.5 -126t71.5 -85t70 -58.5q64 -47 143 -62l-70 21h1h1q9 3 23 11q73 37 122 99q4 -4 19.5 9t38 43.5t45.5 72t43.5 105t30.5 133.5l-1 4q7 39 11 78.5t5 59.5zM616 284q0 -11 -8 -19t-19 -8h-154v0q-11 0 -19 8t-8 19v0v103q0 11 8 19
t19 8h9v54q1 28 21 47.5t48 19.5t47.5 -19.5t20.5 -47.5v-54h8q11 0 19 -8t8 -19v-103zM512 361q-7 0 -12.5 -5t-5.5 -13q0 -10 8 -15q1 0 1 -1v0v-26q0 -9 9 -9t9 9v26v1q9 5 9 15q0 8 -5.5 13t-12.5 5z" />
    <glyph glyph-name="shujuquanxian" unicode="&#xe63a;" 
d="M527 426h-181q-8 0 -14.5 -6t-6.5 -15t6.5 -15t14.5 -6h151q13 27 30 42zM764 720h-501q-35 0 -61 -26.5t-26 -60.5v-499q0 -34 26 -60t60 -26h279q16 0 23 10.5t0 21.5t-23 11h-279q-17 0 -30 13t-13 30v499q0 17 13.5 32.5t30.5 15.5h501q17 0 29 -14t12 -32v0v-162
q0 -13 11 -18.5t21.5 0t10.5 18.5v163q0 34 -24.5 59t-59.5 25zM325 280.5q0 -8.5 6.5 -15t14.5 -6.5h119q0 16 5 43h-124q-8 0 -14.5 -6.5t-6.5 -15zM702 532.5q0 8.5 -6.5 14t-14.5 5.5h-335q-8 0 -14.5 -5.5t-6.5 -14t6.5 -14t14.5 -5.5h335q8 0 14.5 5.5t6.5 14z
M705 421q-45 -34 -102 -34q-20 0 -41 7v-160q0 -22 15.5 -52.5t45.5 -63.5q26 -29 55 -51q11 -8 21 -14q2 -1 4.5 -1t4.5 1q10 6 21 14q30 23 57 52q30 34 46 64t16 51v160q-21 -7 -41 -7q-57 0 -102 34zM719 221v-70q0 -6 -4 -10.5t-10 -4.5t-10 4.5t-4 10.5v70
q-24 5 -38 23t-14 42q0 28 19.5 47.5t47 19.5t46.5 -19.5t19 -47.5q0 -23 -15 -41t-37 -24z" />
    <glyph glyph-name="shangxia" unicode="&#xe667;" 
d="M210 511q-17 0 -29 12t-12 29t12 29l302 301q12 12 29 12t29 -12l299 -300q12 -12 12 -29t-12 -29t-28.5 -12t-28.5 12l-271 271l-273 -272q-12 -12 -29 -12zM510 -128q-17 0 -29 12l-300 300q-12 12 -12 29t12 29t29 12t29 -12l271 -271l273 272q12 12 28.5 12t28.5 -12
t12 -29t-12 -29l-301 -301q-12 -12 -29 -12z" />
    <glyph glyph-name="icons-26" unicode="&#xe65a;" 
d="M344 29q-18 9 -56 25q-20 9 -62 27t-62 27q-8 3 -8 10v613q0 6 1 7t7 -2q21 -9 82 -35t93 -41q8 -3 16 0q35 18 55 27q5 3 7 3q2 -3 -1 -5q-15 -27 -19 -59q0 -8 -9 -12q-4 -1 -14 -6t-16 -6q-16 -4 -35 5q-18 7 -52 21.5t-51 21.5q-6 3 -7 2t-1 -7v-223q0 -7 1.5 -8.5
t9.5 -1.5q48 -4 82 -23q21 -11 38 -27q8 -5 12 -5q34 -4 52 -31q5 -7 12 -21l10 -20q15 -26 36 -34q15 -7 25 -1q26 10 64 1q67 -17 95 -83q11 -25 17 -55q1 -8 7 -9q8 -3 11 -4q14 -9 30 1q15 8 44.5 22.5t44.5 22.5q6 3 6 10v488q0 6 -1 6.5t-7 -1.5q-9 -5 -29 -14.5
t-30 -14.5q-6 -4 -7 3q-3 28 -11 45q-2 4 3 7q20 10 42.5 21t50 25t43.5 21h2v-628q-1 -1 -3 -1.5t-3 -1.5q-123 -61 -147 -74q-2 -1 -3.5 -2t-3.5 -2h-5l-2 2q-30 12 -90 38t-90 38q-6 3 -12 -1q-32 -16 -64.5 -32.5t-63.5 -31.5q-5 -2 -13.5 -6.5t-12.5 -6.5q-3 -4 -8 -4z
M567 305q-13 0 -15 2t-4 16q-3 24 -21 70q-6 15 -14 31t-19.5 37.5t-16.5 30.5q-20 38 -34 74q-17 44 2 89t59 66q59 31 118 3.5t73 -92.5q8 -34 -9 -76q-9 -23 -40 -81q-38 -74 -50 -108q-9 -26 -11 -56q0 -8 -8 -8q-4 2 -10 2zM567 660q-23 0 -39.5 -16t-16.5 -40
q0 -23 16.5 -40t39.5 -17q24 0 41 16t17 40q-1 26 -18.5 42.5t-39.5 14.5z" />
    <glyph glyph-name="xinzeng1" unicode="&#xe620;" 
d="M802 52zM774 52q0 -11 8 -19.5t19.5 -8.5t19.5 8.5t8 19.5t-8 19t-19.5 8t-19.5 -8t-8 -19zM909 52zM882 52q0 -11 8 -19.5t19.5 -8.5t19.5 8.5t8 19.5t-8 19t-19.5 8t-19.5 -8t-8 -19zM909 144zM882 143.5q0 -11.5 8 -19.5t19.5 -8t19.5 8t8 19.5t-8 19.5t-19.5 8
t-19.5 -8t-8 -19.5zM883 530h-1v-54v0v-225q0 -10 7.5 -17.5t18 -7.5t18 7.5t7.5 17.5v348q0 23 -16.5 39.5t-39.5 16.5h-305l-96 76q-7 6 -16 6h-313q-23 0 -39 -16t-16 -40v-601q0 -23 16 -39.5t39 -16.5h555q11 0 18.5 7.5t7.5 18t-7.5 18t-18.5 7.5h-555v0q-5 0 -5 5v0
v400h1v55v0v146q0 5 5 5h304l95 -77q7 -6 16 -6h315q5 0 5 -5v-68zM514 154v0q11 0 18.5 7.5t7.5 18.5v134h134q11 0 18.5 7.5t7.5 18t-7.5 18.5t-18.5 8h-134v134q0 10 -7.5 17.5t-18 7.5t-18.5 -7.5t-8 -17.5v-134h-134q-11 0 -18.5 -7.5t-7.5 -18.5v0v0q0 -11 7.5 -18.5
t18.5 -7.5h134v-134q0 -11 7.5 -18.5t18.5 -7.5z" />
    <glyph glyph-name="daichuli" unicode="&#xe7cf;" 
d="M964 193q-17 39 -47 68.5t-70 46.5t-85 17t-85 -17t-70 -46t-47.5 -68.5t-17.5 -84.5t17.5 -84.5t47.5 -68.5t70 -46t85 -17t85 17t70 46t47 68.5t17 84.5t-17 84zM902 84.5q-7 -9.5 -16 -9.5h-135q-9 0 -16 9.5t-7 23.5q0 4 2 12v108q0 7 7.5 13t22.5 6t23.5 -6t8.5 -13
v-87h94q9 0 16 -9.5t7 -23.5t-7 -23.5zM476 110v15q0 6 1 13h-247q-25 0 -43.5 18.5t-18.5 44t18.5 43t43.5 17.5h291q38 58 100 92t137 34h18q8 0 17 -2v245h-146q-27 0 -47 11.5t-33 30t-19 40t-6 40.5v123h-462q-15 0 -26 -11t-11 -26v-848q0 -15 11 -26t26 -11h445
q-23 35 -36 74t-13 83zM186.5 489q18.5 18 43.5 18h375q26 0 44 -18t18 -43.5t-18 -43t-44 -17.5h-375q-25 0 -43.5 17.5t-18.5 43t18.5 43.5zM681 692h112v146q0 15 -11 26t-27 11h-149v-109q0 -31 22 -52.5t53 -21.5z" />
    <glyph glyph-name="daibr" unicode="&#xe6a6;" 
d="M393 795l117 100l120 -102l-50 -111h-136zM639 304l-19 122l-231 -109l-23 -141zM595 588l-176 -82l-21 -133l215 100zM410 -40l102 -87l171 146l-10 64zM646 256l-289 -135l-16 -102l30 -25l294 137zM588 636l-6 39h-136l-18 -114z" />
    <glyph glyph-name="yujing" unicode="&#xe607;" 
d="M887 -63v843l-133 116l-444 -166v-41l403 136v-949h268v61h-94zM166 196l211 43v107l-211 -56v-94zM166 -126h211v113l-211 -16v-97zM166 36l211 20v107l-211 -35v-92zM166 360l211 58v111l-211 -71v-98zM611 637l-119 72l-449 -162v-675h59v643l336 110v-750h173v762v0z
M611 637z" />
    <glyph glyph-name="mianji1" unicode="&#xe778;" 
d="M963 671q20 0 20 14v150q0 9 -5.5 14.5t-14.5 5.5h-150q-14 0 -14 -20v-62h-574v62q0 20 -14 20h-150q-9 0 -14.5 -5.5t-5.5 -14.5v-150q0 -14 20 -14h62v-574h-62q-20 0 -20 -14v-150q0 -9 5.5 -14.5t14.5 -5.5h150q14 0 14 20v62h574v-62q0 -20 14 -20h150
q9 0 14.5 5.5t5.5 14.5v150q0 14 -20 14h-62v574h62zM840 814h102v-102h-102v102zM82 814h102v-102h-102v102zM184 -46h-102v102h102v-102zM942 -46h-102v102h102v-102zM860 97h-47q-9 0 -11.5 -2.5t-2.5 -11.5v-47h-574v47q0 9 -2.5 11.5t-11.5 2.5h-47v574h47
q9 0 11.5 2.5t2.5 11.5v47h574v-47q0 -9 2.5 -11.5t11.5 -2.5h47v-574zM748 648l-500 -500q-6 -6 -6 -14t6 -14t14 -6t14 6l500 500q6 6 6 14t-6 14t-14 6t-14 -6z" />
    <glyph glyph-name="wenjian2" unicode="&#xe618;" 
d="M977 530h-930v190q0 19 13.5 34t34.5 15h232q19 0 35 -10t29 -24.5t27.5 -28.5t38.5 -24.5t56 -10.5h418q18 0 32.5 -14t14.5 -35v-92h-1zM977 54q0 -19 -13.5 -34t-34.5 -15h-834q-19 0 -33.5 14t-14.5 35v428h930v-428v0zM929 720h-416q-26 0 -46.5 10t-34.5 24
t-27.5 28.5t-33 24.5t-44.5 10h-232q-40 0 -67.5 -28.5t-27.5 -68.5v-672q0 -40 27.5 -68.5t67.5 -28.5h834q40 0 67.5 28.5t27.5 68.5v579q-3 40 -29 66.5t-66 26.5v0z" />
    <glyph glyph-name="yuandian" unicode="&#xe639;" 
d="M646.5 529.5q-52.5 52.5 -127.5 52.5t-127.5 -52.5t-52.5 -127.5t52.5 -127.5t127.5 -52.5t127.5 52.5t52.5 127.5t-52.5 127.5z" />
    <glyph glyph-name="caiwudate" unicode="&#xe697;" 
d="M782 578h-540q-15 0 -25.5 10.5t-10.5 25.5t10.5 25.5t25.5 10.5h540q15 0 25.5 -10.5t10.5 -25.5t-10.5 -25.5t-25.5 -10.5zM731 695h-438q-14 0 -24.5 10.5t-10.5 25.5t10.5 25.5t24.5 10.5h438q14 0 24.5 -10.5t10.5 -25.5t-10.5 -25.5t-24.5 -10.5zM899 423
q0 41 -29 70.5t-71 29.5h-574q-42 0 -71 -29.5t-29 -70.5v-322q0 -42 29 -71t71 -29h574q42 0 71 29t29 71v322zM543 295h70q14 0 23.5 -9t9.5 -21.5t-9.5 -21t-22.5 -8.5l-71 -1v-37l70 1q14 -1 23.5 -9.5t9.5 -21t-9.5 -21.5t-22.5 -9h-71v-37q0 -13 -9 -22.5t-22 -9.5
t-22 9.5t-9 22.5v37h-71q-13 0 -22.5 9t-9.5 21.5t9.5 21t22.5 8.5h71v37h-71q-13 0 -22.5 9t-9.5 21.5t9.5 21.5t22.5 9h71v14l-94 92q-10 9 -10 22.5t10 23t23.5 9.5t23.5 -10l78 -77l78 77q10 10 23.5 10t23.5 -9.5t10 -23t-10 -22.5l-94 -93v-13z" />
    <glyph glyph-name="diyiyebackward1" unicode="&#xe602;" 
d="M784 367l-3 -3l-293 -292q-6 -7 -16 -7t-16.5 6.5t-6.5 16.5t6 17l279 279l-279 279q-6 7 -6 16.5t6.5 16.5t16.5 7t16 -7l293 -293q2 -1 3 -2q7 -7 7 -17t-7 -17zM551 401q7 -7 7 -17t-7 -17l-3 -3l-293 -292q-7 -7 -16.5 -7t-16.5 6.5t-7 16.5t7 17l279 279l-279 279
q-7 7 -7 16.5t7 16.5t16.5 7t16.5 -7l293 -293q2 -1 3 -2z" />
    <glyph glyph-name="edit" unicode="&#xe6b5;" horiz-adv-x="1036" 
d="M873 23q0 -11 -6.5 -18.5t-16.5 -7.5h-668q-9 0 -15.5 7.5t-6.5 18.5t6.5 18.5t15.5 7.5h668q10 0 16.5 -7.5t6.5 -18.5zM789 570q-7 -7 -17.5 -7t-18.5 7l-107 110q-8 7 -8 18t8 18l36 37q7 7 17.5 7t17.5 -7l108 -110q8 -7 8 -18t-8 -18zM592 589l71 -73l-287 -292
l-72 73zM592 651v0q-11 0 -18 -8l-324 -328q-8 -7 -8 -18t8 -18l108 -110q7 -7 18 -7v0q10 0 18 7l323 329q8 7 8 17.5t-8 18.5l-107 109q-8 8 -18 8v0zM214 242q-8 8 -14.5 6t-8.5 -13l-26 -132q-2 -10 3.5 -16t16.5 -4l130 26q10 2 12 9t-5 15z" />
    <glyph glyph-name="puzzle" unicode="&#xe6b6;" horiz-adv-x="1036" 
d="M189 758v-124q127 -46 224 -61q11 39 43 63.5t73 24.5t73 -25t43 -63q43 6 100 20t93 25l35 11l2 128zM597 535q0 28 -20 48t-48 20t-48 -20t-20 -48t20 -48t48 -20t48 20t20 48zM529 419q-46 0 -80 30.5t-40 76.5q-42 6 -98 21t-91 26l-35 12l2 -553h684l1 554
q-128 -46 -224 -61q-5 -45 -39 -75.5t-80 -30.5zM529 80h-194v50h194v-50zM529 177h-194v50h194v-50zM723 274h-388v48h388v-48z" />
    <glyph glyph-name="dangan2" unicode="&#xe6b8;" horiz-adv-x="1036" 
d="M818 594q0 19 -11 29.5t-21 12.5l-11 1h-509q-2 0 -5 -0.5t-10 -2.5t-12.5 -6t-10.5 -13t-5 -21v-43h595v43zM690 722h-339h-5t-10 -2.5t-12.5 -6.5t-10.5 -13t-5 -21h425q0 12 -4.5 21t-10.5 13t-12.5 6.5t-10.5 2.5h-5v0zM903 551l-26 26v-68h-713v68l-25 -26
q-3 -3 -11.5 -11t-11 -10.5t-7.5 -10t-5.5 -13.5t-0.5 -16.5t3 -23.5q5 -30 34 -199.5t32 -184.5q3 -19 16 -29.5t24 -11.5l12 -1h594h5t11 2.5t14.5 6.5t12.5 12.5t9 20.5q2 16 31 185t35 199q2 13 2 23.5t-0.5 16.5t-5.5 13.5t-7 10t-10.5 10.5t-11.5 11v0zM690 321v-4.5
t-2.5 -10t-6.5 -13t-12.5 -10t-20.5 -4.5h-255q-12 0 -20.5 4t-12.5 10.5t-6.5 12.5t-2.5 11v4v85h59v-68h221v68h59v-85v0zM690 321z" />
    <glyph glyph-name="gongshang" unicode="&#xe6ba;" horiz-adv-x="1036" 
d="M817 771h-605q-8 0 -8 -9v-702v-0.5v-0.5q0 -10 7 -16l55 -43q5 -4 12 -4q6 0 11 3l50 36l45 -35q5 -4 11 -4v0q7 0 12 3l49 36l44 -35q5 -4 12 -4q6 0 11 3l50 36l45 -35q5 -4 12 -4v0q6 0 11 3l48 35l43 -33q5 -4 11 -4v0q7 0 12 3l60 44q4 4 7 10q2 2 2 6v702
q0 9 -7 9zM403 141h-96q-7 0 -13 5.5t-6 13.5t6 13.5t13 5.5h96q7 0 13 -5.5t6 -13.5t-6 -13.5t-13 -5.5zM403 253h-96q-7 0 -13 6t-6 14t6 13.5t13 5.5h96q7 0 13 -5.5t6 -13.5t-6 -14t-13 -6zM403 366h-96q-7 0 -13 6t-6 14t6 13.5t13 5.5h96q7 0 13 -5.5t6 -13.5t-6 -14
t-13 -6zM428 594q0 36 25 61.5t61 25.5t61 -25.5t25 -61.5t-25 -61.5t-61 -25.5t-61 25.5t-25 61.5zM722 141h-213q-8 0 -14 5.5t-6 13.5t6 13.5t14 5.5h213q8 0 13.5 -5.5t5.5 -13.5t-5.5 -13.5t-13.5 -5.5zM722 253h-213q-8 0 -14 6t-6 14t6 13.5t14 5.5h213
q8 0 13.5 -5.5t5.5 -13.5t-5.5 -14t-13.5 -6zM722 366h-213q-8 0 -14 6t-6 14t6 13.5t14 5.5h213q8 0 13.5 -5.5t5.5 -13.5t-5.5 -14t-13.5 -6zM466 594q0 -20 14 -34t34 -14t34 14t14 34t-14 34.5t-34 14.5t-34 -14.5t-14 -34.5z" />
    <glyph glyph-name="bell-o" unicode="&#xe6bb;" horiz-adv-x="1036" 
d="M128 777zM432 717q21 0 36 -14.5t15 -35.5v-203q0 -21 -15 -36t-36 -15h-203q-21 0 -35.5 15t-14.5 36v203q0 21 14.5 35.5t35.5 14.5h203zM432 312q21 0 36 -14.5t15 -35.5v-203q0 -21 -15 -35.5t-36 -14.5h-203q-21 0 -35.5 14.5t-14.5 35.5v203q0 21 14.5 35.5
t35.5 14.5h203zM837 312q21 0 35.5 -14.5t14.5 -35.5v-203q0 -21 -14.5 -35.5t-35.5 -14.5h-202q-21 0 -36 14.5t-15 35.5v203q0 21 15 35.5t36 14.5h202zM949 628q17 -16 17 -38t-17 -37l-150 -151q-16 -16 -37.5 -16t-37.5 16l-151 151q-15 15 -15 37t15 38l151 150
q16 16 37.5 16t37.5 -16z" />
    <glyph glyph-name="briefcase" unicode="&#xe6bd;" horiz-adv-x="1036" 
d="M890 350q-32 48 -47.5 97.5t-14.5 87t7 67.5t13 46l8 16l-97 105q-33 -32 -68 -44t-62 -6.5t-49.5 16.5t-34.5 21t-12 11q-33 -33 -69 -45.5t-63.5 -6.5t-50.5 17t-35 22l-12 11l-89 -93q27 -31 35 -73.5t1 -81t-18.5 -73t-22 -55l-10.5 -20.5q-59 -149 48 -241
q30 -25 59 -37q21 -5 82.5 -37.5t112.5 -63.5l51 -30q-2 5 13.5 17t43 28t55 30.5t58 29.5t42.5 21t19 9v0q33 21 56.5 47t35 49.5t17.5 48.5t6.5 43t-2 35.5t-4 23t-2.5 8.5v0zM755 126l-127 -62q-87 -45 -83 -56q-174 100 -217 110q-3 1 -8.5 4t-21 14t-28 23.5t-26 33
t-20 43t-4.5 54t16 65.5q4 8 11 22.5t21.5 55t21 76.5t2 78t-26.5 70l48 55q5 -4 13.5 -10t34 -17.5t50.5 -14.5t60 8.5t65 42.5q4 -5 12.5 -11.5t34 -19.5t50 -17.5t58.5 5t63 38.5l60 -73q-3 -6 -7.5 -16.5t-12 -43.5t-8 -66t12.5 -80t42 -89v0q21 -45 8 -101
q-17 -71 -94 -121zM272 653zM829 337q-30 42 -44 89t-13 83.5t6.5 67.5t12.5 48l8 17l-45 57q-30 -26 -63.5 -35.5t-59.5 -3.5t-48 15.5t-34 18.5l-12 10q-30 -28 -63.5 -39.5t-60 -8t-49 11.5t-34.5 17l-13 8l-36 -39q23 -25 27.5 -67t-5 -84t-22.5 -80t-23.5 -62.5
t-11.5 -24.5q-15 -42 -9.5 -74.5t20 -56.5t33.5 -39.5t31.5 -23t14.5 -7.5q40 -18 91 -45t81.5 -45l30.5 -18q13 13 64 41t95.5 49l44.5 21q101 61 92 166q-1 20 -6 33v0zM651 203l-120 90l-120 -90l48 142l-123 87l150 -2l45 143l45 -143l150 2l-123 -87z" />
    <glyph glyph-name="pie-chart" unicode="&#xe6be;" horiz-adv-x="1036" 
d="M673 39q74 30 129 88q90 98 98.5 231.5t-67.5 242.5l-291 -218l131 -344v0zM847 669q-19 26 -41 48q-56 55 -134 82l-115 -350zM623 46l-130 345l114 349q-99 34 -200.5 8.5t-173.5 -102.5q-67 -72 -89.5 -168t3.5 -190.5t97 -164.5q76 -74 178.5 -95t200.5 18v0z" />
    <glyph glyph-name="bell" unicode="&#xe6c1;" horiz-adv-x="1036" 
d="M860 75h-34v0h-1h-1q-7 0 -12 5t-5 12t5 12t12 5h1.5h1.5h16h3.5t8.5 2t10.5 5t8 10.5t3.5 16.5q0 10 -3 18t-6.5 11.5t-12 11t-12.5 11.5l-86 85q-9 9 -13.5 22t-4.5 21l1 9v0h-2v150q0 80 -56.5 136.5t-136.5 56.5h-25q-80 0 -136.5 -56.5t-56.5 -136.5v-150h-1
q2 -31 -18 -51q0 -1 -86 -86q-4 -4 -12 -11t-12 -11t-7 -11.5t-3 -17.5q0 -16 8.5 -24.5t16.5 -9.5l9 -1h500q7 0 11.5 -5t4.5 -12t-4.5 -11.5t-11.5 -5.5v0h-87q-1 -36 -26.5 -61t-61.5 -25h-12q-36 0 -61.5 25t-26.5 61h-242q-24 6 -36.5 23.5t-13 37t3.5 36t11 23.5
q4 3 37.5 32.5t58.5 55t25 32.5v52h1v118q0 83 54 145.5t135 75.5q1 23 17.5 39t38.5 16h8q23 0 39.5 -16.5t16.5 -39.5v-2q75 -18 123.5 -79t48.5 -139v-119h1v-51q0 -8 25 -33t59 -54.5t37 -32.5q7 -7 11 -24t4 -36.5t-13 -36.5t-37 -23v0zM481 72q0 -20 14 -34t34 -14h24
q20 0 34 14t14 34v3h-120v-3zM550 727h-17q-5 0 -9 -4.5t-6 -8.5l-3 -4h52q0 7 -5 12t-12 5z" />
    <glyph glyph-name="quyuguanli" unicode="&#xe6c2;" horiz-adv-x="1036" 
d="M704 175l-150 -149q-5 -6 -13 -6t-13 6q-79 78 -150 149q-93 -15 -150 -44.5t-57 -64.5q0 -33 49.5 -61.5t134.5 -44.5t185.5 -16t186 16t135 44.5t49.5 61.5q0 35 -57 64.5t-150 44.5zM704 175zM531 136q10 -10 20 0q195 195 195 196q65 76 65 176q0 112 -79 191
t-191 79t-191 -79t-79 -191q0 -100 65 -176l49 -49t97.5 -98zM541 631q48 0 82 -34t34 -82t-34 -82t-82 -34t-82 34t-34 82t34 82t82 34zM541 631z" />
    <glyph glyph-name="quyuguanli1" unicode="&#xe6c3;" horiz-adv-x="1036" 
d="M550 454q24 -15 57 -39q17 -12 62.5 -16t105.5 -4t77 -1q26 -2 52.5 -6.5t39.5 -8.5l13 -3l-84 138q6 9 15 23t28 43t29.5 48.5t7.5 18.5q-6 -3 -43 -2t-62 8q-39 11 -179 11q-48 0 -119 56v46h-67v-720h67v408zM645 204v-51q73 -10 118 -29.5t45 -43.5
q0 -33 -83.5 -56.5t-201.5 -23.5t-201.5 23.5t-83.5 56.5q0 24 43 43t114 29v51q-115 -13 -187.5 -47t-72.5 -76q0 -35 52 -65t141 -47.5t194.5 -17.5t194.5 17.5t141 47.5t52 65q0 43 -74 77t-191 47z" />
    <glyph glyph-name="riqi-" unicode="&#xe6c6;" horiz-adv-x="1036" 
d="M847 568v-136h40v136q0 36 -25.5 61.5t-61.5 25.5h-84v-40h84q20 0 33.5 -13.5t13.5 -33.5zM847 98q0 -19 -13.5 -33t-32.5 -14h-605q-19 0 -33 14t-14 33v470q0 20 14 33.5t34 13.5h75v40h-75q-37 0 -62.5 -25.5t-25.5 -61.5v-470q0 -36 25.5 -61.5t61.5 -25.5h605
q36 0 61 25.5t25 61.5v126h-40v-126zM406 655h179v-40h-179v40zM339 359zM297 358.5q0 -17.5 12.5 -29.5t29.5 -12t29.5 12t12.5 29.5t-12.5 30t-29.5 12.5t-29.5 -12.5t-12.5 -30zM515 359zM473 358.5q0 -17.5 12.5 -29.5t30 -12t29.5 12t12 29.5t-12 30t-29.5 12.5
t-30 -12.5t-12.5 -30zM339 224zM297 224.5q0 -17.5 12.5 -30t29.5 -12.5t29.5 12.5t12.5 30t-12.5 29.5t-29.5 12t-29.5 -12t-12.5 -29.5zM515 224zM473 224.5q0 -17.5 12.5 -30t30 -12.5t29.5 12.5t12 30t-12 29.5t-29.5 12t-30 -12t-12.5 -29.5zM341.5 543
q11.5 0 19.5 8.5t8 19.5v137q0 12 -8 20t-19.5 8t-19.5 -8t-8 -20v-137q0 -12 8 -20t19.5 -8zM652.5 543q11.5 0 19.5 8.5t8 19.5v137q0 12 -8 20t-19.5 8t-19.5 -8t-8 -20v-137q0 -12 8 -20t19.5 -8zM942 380l-27 30l-190 -167l-71 82l-31 -26l99 -112z" />
    <glyph glyph-name="search-plus" unicode="&#xe6cc;" horiz-adv-x="1036" 
d="M853 67l-163 161q68 75 68 181q0 115 -81 196t-195 81q-115 0 -195.5 -81t-80.5 -196t81 -195.5t195 -80.5q106 0 181 68l163 -161q5 -5 13.5 -5t13.5 5q16 16 0 27zM242 409q0 99 70 169.5t170 70.5t170 -69.5t70 -170.5q0 -96 -66 -165q-1 0 -2 -1t-2 -1q-3 -3 -3 -5
q-69 -65 -165 -65q-100 -2 -171 68t-71 169z" />
    <glyph glyph-name="tixing" unicode="&#xe6cd;" horiz-adv-x="1036" 
d="M829 346q0 128 -90 217.5t-217 89.5q-128 0 -217.5 -90t-89.5 -217q0 -74 33.5 -138.5t90.5 -107.5l-42 -38q-5 -5 -6 -12.5t4 -13.5q5 -5 12.5 -6t13.5 4l51 42q69 -40 153 -40q86 0 157 45l2 -3l54 -44q5 -5 12.5 -4t13.5 6q5 6 4 13.5t-7 12.5l-47 40q53 43 84 107.5
t31 136.5zM522.5 74q-112.5 0 -192.5 79.5t-80 192t80 192.5t192.5 80t192 -80t79.5 -192.5t-79.5 -192t-192 -79.5zM299.5 655.5q-5.5 5.5 -13 5.5t-12.5 -6l-87 -86q-5 -6 -5 -13.5t5 -12.5t12.5 -5t13.5 5l86 87q6 5 6 12.5t-5.5 13zM858 571l-87 84q-5 6 -13 6t-13 -5.5
t-5 -13t5 -12.5l87 -85q5 -5 12.5 -5t13 5t5.5 13t-5 13zM665 505l-105 -94q0 -2 -3 -2q-18 5 -25 5q-10 0 -24 -5q0 1 -1 2.5t-1 2.5l-68 61q-5 5 -13 4.5t-13 -7.5q-5 -5 -5 -12.5t7 -12.5l66 -59q-21 -25 -21 -52q0 -30 22 -52.5t53 -22.5q30 0 52.5 22t22.5 53
q0 27 -19 50l103 91q12 12 3 26q-18 11 -31 2zM532 299q-16 0 -27 11t-11 26.5t11 26.5t26.5 11t26.5 -11t11 -27q0 -14 -11 -25.5t-26 -11.5z" />
    <glyph glyph-name="bar-chart" unicode="&#xe6cf;" horiz-adv-x="1036" 
d="M305 728q0 -46 -33 -79t-79 -33q-23 0 -45 10q-36 -58 -52 -122q41 -6 69 -37t28 -73t-28 -73.5t-69 -36.5q17 -65 52 -123q22 10 45 10q46 0 79 -32.5t33 -79.5q0 -23 -10 -45q87 -54 192 -64q-22 24 -27.5 45.5t3 35t26 21t39.5 7.5q42 0 73 -27.5t37 -69.5
q65 17 122 52q-10 22 -10 45q0 47 33 79.5t79 32.5q23 0 45 -10q54 87 64 192q-24 -22 -45 -27.5t-35 3.5t-21.5 26t-7.5 39q0 42 28 73t69 37q-16 65 -52 122q-22 -10 -45 -10q-46 0 -79 33t-33 79q0 23 10 45q-58 36 -122 52q-6 -41 -37 -69t-73.5 -28t-73.5 28t-36 69
q-64 -16 -123 -52q10 -22 10 -45zM527.5 561q69.5 0 118.5 -49t49 -118.5t-49 -118t-118.5 -48.5t-118.5 48.5t-49 118t49 118.5t118.5 49z" />
    <glyph glyph-name="yonghushezhi" unicode="&#xe6d4;" horiz-adv-x="1036" 
d="M502 395q-19 -22 -33 -51q-104 -16 -179.5 -98t-83.5 -182h-47q7 107 75 194t169 120q-48 28 -76 76.5t-28 105.5q0 88 62 150.5t150 62.5t150 -62.5t62 -150.5q0 -35 -13 -71q-1 0 -4 0.5t-4 0.5q-21 0 -45 -4q19 36 19 74q0 68 -48.5 116.5t-117 48.5t-116.5 -48.5
t-48 -116.5q0 -66 45.5 -113.5t110.5 -51.5zM863 206q-6 -41 -31 -75l35 -35l-33 -33l-35 35q-34 -25 -75 -31v-50h-47v50q-42 6 -75 31l-35 -35l-33 33l35 35q-25 34 -31 75h-50v47h50q6 42 31 75l-35 35l33 34l35 -35q33 25 75 31v49h47v-49q41 -6 75 -31l35 35l33 -34
l-35 -35q25 -33 31 -75h49v-47h-49v0zM700.5 348q-48.5 0 -83 -34.5t-34.5 -83.5t34.5 -83.5t83 -34.5t83 34.5t34.5 83.5t-34.5 83.5t-83 34.5z" />
    <glyph glyph-name="th-large1" unicode="&#xe6d5;" horiz-adv-x="1036" 
d="M742 388q2 -9 -0.5 -21t-7.5 -24.5t-12 -22t-15.5 -14t-14.5 -4.5t-14 3q-7 2 -18 4q-10 2 -21 1t-22 -4.5t-19 -12.5q-17 -18 -19.5 -40.5t6.5 -42.5q7 -14 -2 -28q-5 -6 -14 -12t-20 -11t-23 -8t-21 -3q-6 0 -12 5t-8 11h-1q-7 22 -26 38t-43 16t-43.5 -16t-27.5 -37
q-4 -9 -11 -13t-15 -4q-10 0 -22 4q-35 10 -64 31q9 -6 18 -11l4 -3l-1 1q-3 2 -4 3q-10 7 -15 14q-4 5 -4 12t5 19q8 16 6 37t-18 38q-10 11 -24 14t-27 2q-14 0 -30 -5q-10 -3 -20 1q-7 3 -14 13t-12 23q-10 22 -11 47l1 -7v1v6q2 15 14 19q22 9 38.5 28.5t16.5 43.5
q0 25 -16.5 43t-38.5 27q-6 2 -10 10t-4 16q0 10 2 21q7 24 20 44q15 17 19 21l-11 -13l1 1l2 1q6 4 11.5 3t11.5 -3q21 -8 44 -5t41 20q8 9 12 21q4 13 5 24q1 12 0 22q-1 9 -2 14q-1 4 -2 10t1 10q4 10 15 17q22 16 50 20h-2q12 3 20 3q9 0 14 -6t7 -13q8 -19 25.5 -33.5
t41.5 -14.5q25 0 44 14t27 35q3 6 9 12t12 6q10 0 22 -3q24 -6 43 -19l-1 1v0q1 -1 2 -2.5t3.5 -3.5t5 -5t4.5 -6q-3 4 -4 5l6 -8q3 -5 1.5 -12t-2.5 -10q-9 -20 -5.5 -42.5t20.5 -39.5t41.5 -19t45.5 8q6 4 14 3t14 -6q10 -10 18.5 -30t11.5 -41q1 -12 -4.5 -18.5
t-10.5 -8.5q-22 -8 -37.5 -27.5t-15.5 -44.5q0 -24 13 -42t34 -25q13 -8 22 -20l-4 4q-2 2 -1 0l2 -6v0v0zM414 324q32 0 60 12t49 33.5t33 49t12 59.5t-12 60t-33 48q-21 21 -49 33t-60 12t-60 -12t-48.5 -32.5t-32.5 -48.5t-12 -60t12 -59.5t33 -49.5q20 -21 48 -33
t60 -12zM951 63q1 -5 0 -11t-3.5 -12.5t-6 -11.5t-8 -7t-8 -2t-7.5 1q-3 1 -9 2q-3 1 -7 1h-4q-8 -1 -15 -4q-2 0 -7 -7q-7 -6 -9 -18q-1 -12 4 -22q3 -8 -1 -15q-3 -3 -7.5 -6t-10.5 -6q-5 -2 -11.5 -3.5t-10.5 -1.5t-6.5 2.5t-3.5 5.5h-1q-4 11 -13.5 19.5t-22.5 8.5
q-12 0 -22 -8.5t-14 -19.5q-2 -4 -5.5 -6t-7.5 -2q-5 0 -12 2q-18 5 -32 16q4 -3 9 -6l2 -1q-2 1 -3 2q-5 3 -7 7q-2 3 -2.5 6t2.5 10q4 8 3.5 18.5t-9.5 19.5q-5 6 -12 7.5t-14 1.5q-7 -1 -15 -3q-5 -2 -11 0q-4 2 -7 7t-6 12q-5 11 -6 24l1 -3v3q1 8 7 10q11 4 19.5 14
t8.5 23q0 12 -8.5 21.5t-19.5 13.5q-3 1 -5 5.5t-2 8.5q0 5 1 11q3 12 10 22q7 9 10 11l-5 -6l1 1q3 1 5.5 1t6.5 -1q10 -5 22 -3.5t21 10.5q4 4 6 11q2 6 3 12v11q-1 5 -1 8q-1 2 -1.5 5t0.5 5q2 5 8 9q12 8 26 10h1q5 1 11 2q-2 -1 -3.5 -1h-2.5v0h3q4 0 7 -3t4 -6
q4 -10 13 -17.5t21 -7.5q13 0 23 7t13 18q2 3 5 6t6 3q5 0 11 -1q13 -3 23 -10h-1v0q5 -4 8 -8l1 -1q1 -3 0.5 -6.5t-1.5 -5.5q-4 -10 -2.5 -21.5t10.5 -20.5t21.5 -10t23.5 4q3 2 7 2t7 -3q5 -5 9.5 -15.5t5.5 -21.5q1 -6 -2 -9.5t-6 -4.5q-11 -4 -19 -14t-8 -22
q0 -13 7 -22t18 -13q6 -4 11 -10l-2 1v-2v0v0zM783 30q16 0 30.5 6.5t25.5 17t17 25t6 30.5t-6 30.5t-17 25t-25.5 17t-30.5 6.5t-30.5 -6.5t-25 -17t-17 -25t-6.5 -30.5t6.5 -30.5t17 -25t25 -17t30.5 -6.5z" />
    <glyph glyph-name="yonghu1" unicode="&#xe6d7;" horiz-adv-x="1036" 
d="M715.5 418q71.5 0 122 -50.5t50.5 -122t-50.5 -122t-122 -50.5t-122 50.5t-50.5 122t50.5 122t122 50.5zM715 467q-92 0 -157 -65t-65 -157t65 -157t157 -65t157 65t65 157t-65 157t-157 65zM836 278l-35 35l-109 -108l-59 58l-34 -35l92 -92zM709 516q1 0 2.5 0.5
t2.5 0.5h-1q-1 0 -2 -0.5t-2 -0.5zM713 517h1h1q2 0 5.5 -0.5t4.5 -0.5q14 37 14 75q0 92 -65 157t-157 65t-157 -65t-65 -157q0 -60 29.5 -110.5t79.5 -80.5q-108 -34 -178 -124t-78 -203h49q9 111 85.5 193t187.5 99q14 30 35 54q-68 5 -114.5 54.5t-46.5 117.5
q0 71 50.5 121.5t122 50.5t122 -50.5t50.5 -121.5q0 -42 -19 -78h3h3q17 3 33 3q1 0 2 0.5t2 0.5zM714 517q2 0 6 -0.5t5 -0.5v0q-1 0 -4.5 0.5t-5.5 0.5h-1zM709 516z" />
    <glyph glyph-name="diamond" unicode="&#xe6d9;" horiz-adv-x="1036" 
d="M396 605h222q2 6 7.5 16t36.5 43t77 67q-10 6 -33 3t-28 1q-4 4 -8.5 16.5t-11.5 22.5t-21 11.5t-29.5 -8t-24.5 -19.5l-9 -11q-1 -1 -3 -2.5t-7.5 -4t-10.5 -2t-11 6t-9 16.5q-5 14 -15 23.5t-23 13.5t-21.5 5.5t-17.5 1.5q-17 0 -36.5 -14.5t-23.5 -46.5
q-2 -11 -12.5 -15t-20.5 1q-25 15 -60 11q4 -5 12.5 -13.5t15.5 -16t16 -17t16 -18t14.5 -18t12 -17t7.5 -15t3 -13t-4 -8.5zM818 136q1 182 0 195q-1 26 -21.5 58t-48 58.5t-55 50t-46.5 36.5l-20 14h-227q-66 -37 -126.5 -103t-68.5 -116q-1 -2 -2.5 -40t-4.5 -93.5
t-4 -71.5q-1 -22 -10 -47t-17 -38l-9 -13q4 -3 11 -7t36.5 -14.5t66.5 -18.5t103 -15t143 -7q56 -1 103.5 1.5t80.5 7.5t57 10t42 12.5t27 12t19.5 11.5t12.5 8q-10 0 -18.5 11.5t-12.5 26.5t-7 32.5t-3.5 27t-0.5 11.5zM623 169q-12 -76 -90 -82v-46h-51v46q-38 5 -87 22
l15 60q45 -18 80 -22q59 -7 62 30q2 15 -22 29t-53.5 25t-54 32.5t-24.5 49.5q-1 42 24 65t62 26v48h51v-46q38 0 74 -16l-14 -57q-43 17 -73 17q-55 0 -56 -25q0 -19 16.5 -29.5t45 -17t32.5 -7.5q25 -11 41 -27q29 -28 22 -75z" />
    <glyph glyph-name="caiwunianbaochaxun" unicode="&#xe6db;" horiz-adv-x="1082" 
d="M140 447q0 -87 43 -160.5t117 -116.5t161 -43q104 0 189 62l157 -144q24 -22 57 -21t55 26q21 22 21 53q0 35 -26 58l-164 150q31 65 31 136q0 87 -43 161t-116.5 117t-161 43t-161 -43t-116.5 -117t-43 -161zM693 447.5q0 -96.5 -68 -164.5t-164.5 -68t-164.5 68
t-68 164.5t68 164.5t164.5 68t164.5 -68t68 -164.5zM392 367q0 -10 -7 -16.5t-17 -6.5h-15q-10 0 -17 6.5t-7 16.5v83q0 10 7 17t17 7h15q10 0 17 -7t7 -17v-83zM490 367q0 -10 -7 -16.5t-16 -6.5h-16q-10 0 -16.5 6.5t-6.5 16.5v134q0 10 6.5 16.5t16.5 6.5h16q9 0 16 -6.5
t7 -16.5v-134zM588 367q0 -10 -6.5 -16.5t-16.5 -6.5h-16q-9 0 -16 6.5t-7 16.5v184q0 10 7 17t16 7h16q10 0 16.5 -7t6.5 -17v-184z" />
    <glyph glyph-name="zcczjhcx" unicode="&#xe6dc;" horiz-adv-x="1082" 
d="M603 738h-118v-68h118v68zM738 738h68q35 0 59.5 -25t24.5 -60v-591q0 -35 -24.5 -60t-59.5 -25h-524q-35 0 -60 25t-25 60v591q0 35 25 60t60 25h67v-68h-40q-18 0 -31 -13t-13 -31v-537v0q0 -19 13 -31.5t31 -12.5v0h470q18 0 31 12.5t13 31.5v537v0q0 18 -13 31
t-31 13v0h-41v68zM383 756q0 14 10 24t24 10t24 -10t10 -24v-101q0 -14 -10 -24t-24 -10t-24 10t-10 24v101zM637 756q0 14 10 24t24 10t23.5 -10t9.5 -24v-101q0 -14 -9.5 -24t-23.5 -10t-24 10t-10 24v101zM551 546q-60 0 -107.5 -36.5t-63.5 -94.5l40 -31q5 50 42.5 84
t88.5 34q39 0 71 -21t49 -55l-42 -11l100 -44q-2 72 -53.5 123.5t-124.5 51.5v0v0zM551 238q-39 0 -70.5 20.5t-49.5 54.5h43l-100 67v-12q1 -72 53 -123.5t124 -51.5q63 0 111.5 39.5t61.5 100.5l-42 22q-5 -49 -42.5 -83t-88.5 -34zM848 166q-5 -8 -12.5 -10.5t-14.5 0.5
l-156 91q-6 3 -7.5 11.5t3.5 15.5l13 23q4 8 12 11t14 0l157 -91q6 -4 7 -12t-3 -16zM643 384h-61q-4 0 -4 -4v-78q0 -4 4 -4h61q4 0 4 4v78q0 4 -4 4zM598 309q0 -3 -2 -3h-8q-2 0 -2 3v5q0 3 2 3h8q2 0 2 -3v-5zM598 325q0 -3 -2 -3h-8q-2 0 -2 3v6q0 3 2 3h8q2 0 2 -3v-6
zM598 342q0 -3 -2 -3h-8q-2 0 -2 3v5q0 3 2 3h8q2 0 2 -3v-5zM619 309q0 -3 -3 -3h-8q-2 0 -2 3v5q0 3 2 3h8q3 0 3 -3v-5zM619 325q0 -3 -3 -3h-8q-2 0 -2 3v6q0 3 2 3h8q3 0 3 -3v-6zM619 342q0 -3 -3 -3h-8q-2 0 -2 3v5q0 3 2 3h8q3 0 3 -3v-5zM639 309q0 -3 -2 -3h-8
q-3 0 -3 3v5q0 3 3 3h8q2 0 2 -3v-5zM639 325q0 -3 -2 -3h-8q-3 0 -3 3v6q0 3 3 3h8q2 0 2 -3v-6zM639 342q0 -3 -2 -3h-8q-3 0 -3 3v5q0 3 3 3h8q2 0 2 -3v-5zM639 360v0q0 -4 -4 -4h-46q-3 0 -3 4v0v14v0q0 4 3 4h46q4 0 4 -4v-14zM526 446q-11 -1 -14 -2q-7 -2 -2 -8
l14 -21h40q13 19 14 21q3 7 -3 8q-10 2 -12 2l-2.5 -1t-6.5 -2t-9 -2q-7 0 -12 2.5t-7 2.5zM573 396l-9 7h-41q-32 -21 -49 -65q-7 -17 4 -31q9 -11 24 -11h71v100zM547 320v-9h-7v9q-14 1 -18 16l11 3q2 -9 11 -9q4 0 6 2t2 5t-2 4.5t-9 3.5q-6 2 -9 4t-5.5 6t-2.5 9
q0 6 4 11t12 6v7h7v-7q12 -1 16 -14l-10 -4q-3 9 -9 9q-3 0 -5 -2t-2 -4.5t2 -4t7 -3.5q7 -3 10.5 -5t6 -5.5t2.5 -8.5q0 -8 -4.5 -13t-13.5 -6z" />
    <glyph glyph-name="weihu" unicode="&#xe61c;" 
d="M582 634q-14 -30 -14 -65q0 -63 44.5 -107.5t107.5 -44.5q35 0 65 15q-42 -42 -102 -42q-14 0 -29 3q-26 5 -44 -13l-277 -277q-1 33 -24 56t-55 24l276 276q19 19 13 44q-7 36 3 70.5t36 60.5v0zM631 217l152 -152q6 -6 6 -15t-6 -15.5t-15.5 -6.5t-15.5 6l-152 152z
M664 721h-11q-80 -13 -126.5 -80.5t-29.5 -147.5l-320 -319q-30 -31 -30 -74t30 -73q31 -31 74 -31t73 31l320 319q80 -17 147.5 29.5t79.5 127.5q3 18 -3 29.5t-17 11.5q-10 0 -20 -10l-38 -38q-30 -30 -73.5 -30t-73.5 30t-30 73.5t30 73.5l38 38q15 14 8.5 27.5
t-28.5 12.5zM226 76q-16 16 -7 37.5t32 21.5t32 -21.5t-7 -37.5q-11 -10 -25 -10t-25 10zM177 689l-49 -49l61 -86l52 -27l120 -120l49 49l-120 120l-27 52zM619 272l-74 -73q-5 -5 -5 -12.5t5 -12.5l174 -173q20 -20 48.5 -20.5t49 20t20.5 49.5t-20 49l-174 173
q-12 13 -24 0z" />
    <glyph glyph-name="zichan" unicode="&#xe6da;" 
d="M871 480q0 35 -24.5 59t-58.5 24h-512q-18 0 -30 12t-12 30q0 17 12.5 29t29.5 12h470q18 0 30 12t12 30t-12 29.5t-30 11.5h-41h27h-498q-34 0 -58.5 -24t-24.5 -59v-525q0 -35 24.5 -59t58.5 -24h554q34 0 58.5 24t24.5 59v359zM594 300.5q0 17.5 12 29.5t30 12h110
q18 0 30 -12t12 -29.5t-12 -29.5t-30 -12h-110q-18 0 -30 12t-12 29.5z" />
    <glyph glyph-name="check" unicode="&#xe600;" 
d="M111 804h517l126 -126v-147h45v171v0l-148 147v0v0h-585v-874h277v57h-232v772zM238 640h352v-46h-352v46zM244 430h147v-46h-147v46zM244 218h107v-45h-107v45zM823 83q26 31 43 71.5t17 81.5q0 94 -67 160.5t-161 66.5t-160.5 -66.5t-66.5 -160.5t66.5 -161t160.5 -67
q71 0 140 49l133 -137l29 28l-134 135v0zM655 47q-74 0 -131.5 57.5t-57.5 131.5t57.5 131.5t131.5 57.5t132 -57.5t58 -131.5t-58 -131.5t-132 -57.5z" />
    <glyph glyph-name="kehuxinxi_intouch" unicode="&#xe684;" 
d="M959 681h-362v85q0 23 -14.5 39t-36.5 16h-63q-22 0 -36.5 -16t-14.5 -39v-85h-360q-21 0 -36.5 -15t-15.5 -36v-577q0 -21 15 -36t37 -15h889q21 0 36 14.5t15 36.5v577q-1 22 -16 36.5t-37 14.5zM186 346q0 39 27 66t65.5 27t65 -27t26.5 -66q0 -23 -10.5 -43
t-28.5 -32q33 -11 57.5 -36.5t36.5 -58.5v-4q2 -3 2 -10q0 -28 -43.5 -47t-105.5 -19q-61 0 -104 19.5t-43 46.5q0 5 2 7q0 5 2 7q11 33 36 58.5t58 36.5q-43 27 -43 75zM524 159h213q17 0 17 -17t-17 -17h-213q-8 0 -12.5 4.5t-4.5 12.5q0 17 17 17zM507 269.5
q0 7.5 4.5 12.5t12.5 5h362q17 0 17 -17q0 -8 -5 -12.5t-12 -4.5h-362q-8 0 -12.5 4.5t-4.5 12zM886 379h-362q-17 0 -17 17q0 8 4.5 12.5t12.5 4.5h362q17 0 17 -17q0 -7 -5.5 -12t-11.5 -5zM468 766q0 9 5 15t12 6h61q7 0 12 -6.5t5 -14.5v-268h-97v268h2zM55 532v4h378
v-38h-378v34zM976 532v-35h-379v35h379z" />
    <glyph glyph-name="shouye" unicode="&#xe6e6;" horiz-adv-x="1083" 
d="M862 324q-19 0 -35.5 -12t-16.5 -29v-169q0 -23 -19 -39t-46 -16h-396q-26 0 -45 16t-19 39v169v5q0 22 -8 29t-22 7q-19 0 -38.5 -12t-19.5 -29v-211q0 -37 30.5 -63.5t74.5 -26.5h491q43 0 74 26.5t31 63.5v211q0 15 -4 24q-9 17 -32 17zM1007 429l-404 345
q-9 8 -25 17.5t-27 10.5h-7v0q-23 0 -52 -28l-404 -345q-14 -12 -14 -29t14 -29t34 -12t34 12l391 334l392 -334q14 -12 34 -12t34 12t14 29t-14 29z" />
    <glyph glyph-name="basicinfo-" unicode="&#xe6fa;" 
d="M826 755h-628q-48 0 -82 -34t-34 -82v-509q0 -48 34 -82t82 -34h628q48 0 82 34t34 82v509q0 48 -34 82t-82 34zM891 131q0 -27 -19 -46t-46 -19h-627q-27 0 -46 19t-19 46v506q0 28 19 47t46 19h627q27 0 46 -19t19 -47v-506v0zM791 612h-124h-1h-1q-10 0 -18 -7.5
t-8 -18.5t8 -18.5t18 -7.5h2h124h1q11 0 18.5 7.5t7.5 18.5t-7.5 18.5t-18.5 7.5h-1v0zM791 211h-558q-11 0 -18.5 -6.5t-7.5 -17t7.5 -17t18.5 -6.5h558q11 0 18.5 6.5t7.5 17t-7.5 17t-18.5 6.5zM791 482h-124q-11 0 -19 -7t-8 -18t8 -18.5t19 -7.5h124q11 0 18.5 7.5
t7.5 18.5t-7.5 18t-18.5 7zM791 350h-124q-11 0 -19 -7.5t-8 -18.5t8 -18t19 -7h124q11 0 18.5 7t7.5 18t-7.5 18.5t-18.5 7.5zM508 293h-219q-30 0 -51.5 21.5t-21.5 52.5v180q0 30 21.5 52t51.5 22h219q30 0 51.5 -22t22.5 -52v-180q-1 -31 -22.5 -52.5t-51.5 -21.5v0v0z
M289 558q-4 0 -7.5 -3t-3.5 -8v-180q0 -5 3.5 -8.5t7.5 -3.5h219v0q5 0 8 3.5t3 8.5v180q0 5 -3 8t-8 3h-219z" />
    <glyph glyph-name="tijiao1" unicode="&#xe606;" 
d="M774 371v0q-19 19 -32 19q-9 0 -17 -4t-8 -8q-7 0 -7 -7l-192 -192q-20 -20 0 -51q10 -10 26 -10t26 10l134 147v-352q0 -14 9 -23t23 -9t23 9t9 23v352l141 -141q9 -9 25 -9t26 9q20 21 0 52zM928 403q14 0 23 9t9 23v314q0 38 -19 77q-26 43 -77 64q-26 6 -70 6h-621
q-39 0 -58 -6q-51 -10 -83 -51t-32 -90v-723q0 -64 51 -116q39 -38 96 -38h295q14 0 23 9t9 23t-9 23t-23 9h-288h-7h-6h-13q-6 0 -13 6h-6l-7 7q-6 0 -6 6v0l-13 13l-6 6l-7 7l-6 6v7v19v0v6v730v6v7q0 12 6 19v6q0 7 7 7l6 6l7 6l6 7l6 6v0q4 3 10 6.5t10 6.5h12h711
q9 0 0 0q6 0 19 -13h6l7 -6l6 -7l7 -6l4 -6t2 -5v-2v-352q0 -14 9 -23t23 -9zM666 672q0 14 -9 23t-23 9h-410q-10 0 -18 -9t-8 -23t8 -23t18 -9h410q13 0 22.5 10.5t9.5 21.5zM224 320q-10 0 -18 -9t-8 -23t9 -23t23 -9h160q15 0 23.5 9t8.5 23t-8.5 23t-23.5 9h-166z
M602 480q0 14 -9 23t-23 9h-346q-10 0 -18 -9t-8 -23q0 -10 8.5 -21t17.5 -11h346q13 0 22.5 10.5t9.5 21.5z" />
    <glyph glyph-name="shangxia1" unicode="&#xe644;" 
d="M885 263h-650q-24 0 -35.5 -12.5t0.5 -24.5q18 -20 166 -174t159 -164q14 -14 36.5 -13t35.5 13q5 5 159.5 166.5t163.5 171.5q12 13 0.5 24t-35.5 13zM235 505h650q23 0 35 12t0 25q-9 9 -164 171.5t-161 167.5q-11 13 -34 13t-38 -13q-5 -7 -80 -85t-156 -162.5
t-87 -91.5q-12 -12 -0.5 -24.5t35.5 -12.5z" />
    <glyph glyph-name="fujianshangchuan" unicode="&#xe6e2;" 
d="M807 701h-590q-22 0 -36.5 -14.5t-14.5 -36.5v-401q0 -22 14.5 -36.5t36.5 -14.5h215l-12 -73h-99q-8 0 -13.5 -6t-5.5 -13v-4q0 -7 5.5 -12.5t13.5 -5.5h382q8 0 13.5 5.5t5.5 12.5v4q0 7 -5.5 13t-13.5 6h-99l-12 73h215q22 0 36.5 14.5t14.5 36.5v401q0 22 -14.5 36.5
t-36.5 14.5zM454 123l12 73h92l12 -73h-116zM217 667h590q17 0 17 -17v-321h-624v321q0 17 17 17zM807 232h-590q-17 0 -17 17v48h624v-48q0 -17 -17 -17zM495 550v-163h34v163l77 -79l25 24l-119 119l-119 -119l25 -24z" />
    <glyph glyph-name="company" unicode="&#xe6e7;" 
d="M807 192h-156q-7 0 -12 5.5t-5 12.5t5 12t12 5h156q7 0 12 -5t5 -12t-5 -12.5t-12 -5.5zM807 322h-156q-7 0 -12 5t-5 12.5t5 12.5t12 5h156q7 0 12 -5t5 -12.5t-5 -12.5t-12 -5zM807 452h-156q-7 0 -12 5t-5 12t5 12t12 5h156q7 0 12 -5t5 -12t-5 -12t-12 -5zM426 417
h-172q-8 0 -13 5t-5 12.5t5 12.5t13 5h172q8 0 13 -5t5 -12.5t-5 -12.5t-13 -5zM426 573h-172q-8 0 -13 5t-5 12t5 12.5t13 5.5h172q8 0 13 -5.5t5 -12.5t-5 -12t-13 -5zM444 -15h-35v225q0 7 -5 12t-12 5h-104q-7 0 -12 -5t-5 -12v-225h-35v225q0 21 15.5 36.5t36.5 15.5
h104q21 0 36.5 -15.5t15.5 -36.5v-225v0zM911 -32h-346v34h328v528q0 21 -15 36.5t-36 15.5h-277v34h277q35 0 60.5 -25.5t25.5 -60.5v-545q0 -7 -5 -12t-12 -5zM565 -32h-450q-7 0 -12 5t-5 12v726q0 36 25.5 61.5t61.5 25.5h311q35 0 60.5 -25.5t25.5 -61.5v-726
q0 -7 -5 -12t-12 -5zM133 2h415v709q0 22 -15.5 37t-36.5 15h-312q-21 0 -36 -15t-15 -37v-709z" />
    <glyph glyph-name="weihu-copy" unicode="&#xe609;" 
d="M807 435h-66q-8 0 -16.5 6t-11.5 14l-9 21q-4 8 -2.5 18t8.5 16l47 47q6 6 6 15t-6 15l-43 43q-6 6 -14.5 6t-15.5 -6l-47 -48q-6 -6 -16 -7.5t-18 2.5l-21 8q-8 3 -14 11t-6 17v67q0 9 -6.5 15.5t-15.5 6.5h-59q-9 0 -15 -6.5t-6 -15.5v-67q0 -9 -6 -17t-15 -11l-21 -8
q-7 -4 -17 -2.5t-17 7.5l-47 48q-6 6 -15 6t-15 -6l-42 -43q-6 -6 -6 -15t6 -15l47 -47q6 -6 7.5 -16t-2.5 -18l-9 -21q-3 -8 -11 -14t-17 -6h-66q-9 0 -15 -6.5t-6 -15.5v-59q0 -9 6 -15t15 -6h65q9 0 17 -6t11 -15l9 -22q4 -8 2.5 -18t-7.5 -16l-46 -46q-6 -6 -6 -15
t6 -15l42 -42q6 -7 15 -7t15 7l46 45q6 6 16 8t18 -2l22 -10q9 -3 15 -11t6 -17v-64q0 -9 6 -15t15 -6h60q8 0 14.5 6t6.5 15v64q0 9 6 17t14 11l17 7l-33 32q-27 -9 -55 -9q-72 0 -123 50.5t-51 122.5t51 122.5t122.5 50.5t122.5 -50.5t51 -122.5q0 -28 -9 -54l32 -33l7 17
q3 9 11 14.5t17 5.5h65q9 0 15.5 6.5t6.5 15.5v59q0 9 -6.5 15.5t-15.5 6.5v0zM641 314q-10 10 -6 23q15 42 2 82.5t-49 65.5q-48 34 -104 17q3 -4 45 -46q22 -22 22.5 -47t-20.5 -46t-46.5 -20t-46.5 22q-2 3 -44 46q-2 -1 -5 -3q-13 -73 37 -120q56 -54 129 -29
q16 5 27 -7q22 -22 78.5 -76.5t60.5 -57.5q28 -28 57 -3q16 14 17 31.5t-15 33.5q-21 20 -73.5 70.5t-65.5 63.5v0zM747 130q-8 0 -14 6t-6 14.5t6 14.5t14.5 6t14.5 -6t6 -14.5t-6 -14.5t-15 -6v0zM747 130z" />
    </font>
</defs>
</svg>
